<mxfile host="app.diagrams.net" modified="2022-11-22T13:23:18.035Z" agent="5.0 (Macintosh; Intel Mac OS X 10_15_7) AppleWebKit/537.36 (KHTML, like Gecko) Chrome/107.0.0.0 Safari/537.36" etag="QAc9o6zdrSMLKKVsgGHI" version="20.5.3" type="github">
  <diagram id="1wKS6FHFyyqZvg2__xOS" name="第 1 页">
    <mxGraphModel dx="788" dy="443" grid="1" gridSize="10" guides="1" tooltips="1" connect="1" arrows="1" fold="1" page="1" pageScale="1" pageWidth="827" pageHeight="1169" math="0" shadow="0">
      <root>
        <mxCell id="0" />
        <mxCell id="1" parent="0" />
        <mxCell id="yJ-5sPFS29ZkN8GHGP7e-22" value="" style="rounded=1;whiteSpace=wrap;html=1;fillColor=#f8cecc;strokeColor=#b85450;" vertex="1" parent="1">
          <mxGeometry x="410" y="110" width="200" height="360" as="geometry" />
        </mxCell>
        <mxCell id="yJ-5sPFS29ZkN8GHGP7e-21" value="" style="rounded=1;whiteSpace=wrap;html=1;fillColor=#ffe6cc;strokeColor=#d79b00;" vertex="1" parent="1">
          <mxGeometry x="200" y="110" width="210" height="360" as="geometry" />
        </mxCell>
        <mxCell id="yJ-5sPFS29ZkN8GHGP7e-7" style="edgeStyle=orthogonalEdgeStyle;rounded=0;orthogonalLoop=1;jettySize=auto;html=1;exitX=0.5;exitY=1;exitDx=0;exitDy=0;entryX=0.5;entryY=0;entryDx=0;entryDy=0;" edge="1" parent="1" source="yJ-5sPFS29ZkN8GHGP7e-1" target="yJ-5sPFS29ZkN8GHGP7e-3">
          <mxGeometry relative="1" as="geometry" />
        </mxCell>
        <mxCell id="yJ-5sPFS29ZkN8GHGP7e-9" value="&lt;font&gt;签发 &lt;/font&gt;&lt;font&gt;文字&lt;/font&gt;" style="edgeLabel;html=1;align=center;verticalAlign=middle;resizable=0;points=[];" vertex="1" connectable="0" parent="yJ-5sPFS29ZkN8GHGP7e-7">
          <mxGeometry relative="1" as="geometry">
            <mxPoint as="offset" />
          </mxGeometry>
        </mxCell>
        <mxCell id="yJ-5sPFS29ZkN8GHGP7e-1" value="GlobalSign​" style="rounded=1;whiteSpace=wrap;html=1;fillColor=#1ba1e2;fontColor=#ffffff;strokeColor=#006EAF;" vertex="1" parent="1">
          <mxGeometry x="230" y="140" width="120" height="60" as="geometry" />
        </mxCell>
        <mxCell id="yJ-5sPFS29ZkN8GHGP7e-11" style="edgeStyle=orthogonalEdgeStyle;rounded=0;orthogonalLoop=1;jettySize=auto;html=1;exitX=0.5;exitY=1;exitDx=0;exitDy=0;entryX=0.5;entryY=0;entryDx=0;entryDy=0;" edge="1" parent="1" source="yJ-5sPFS29ZkN8GHGP7e-2" target="yJ-5sPFS29ZkN8GHGP7e-4">
          <mxGeometry relative="1" as="geometry" />
        </mxCell>
        <mxCell id="yJ-5sPFS29ZkN8GHGP7e-12" value="签发" style="edgeLabel;html=1;align=center;verticalAlign=middle;resizable=0;points=[];" vertex="1" connectable="0" parent="yJ-5sPFS29ZkN8GHGP7e-11">
          <mxGeometry relative="1" as="geometry">
            <mxPoint as="offset" />
          </mxGeometry>
        </mxCell>
        <mxCell id="yJ-5sPFS29ZkN8GHGP7e-2" value="ISRG Root X1​" style="rounded=1;whiteSpace=wrap;html=1;fillColor=#1ba1e2;fontColor=#ffffff;strokeColor=#006EAF;" vertex="1" parent="1">
          <mxGeometry x="450" y="140" width="120" height="60" as="geometry" />
        </mxCell>
        <mxCell id="yJ-5sPFS29ZkN8GHGP7e-8" style="edgeStyle=orthogonalEdgeStyle;rounded=0;orthogonalLoop=1;jettySize=auto;html=1;exitX=0.5;exitY=1;exitDx=0;exitDy=0;entryX=0.5;entryY=0;entryDx=0;entryDy=0;" edge="1" parent="1" source="yJ-5sPFS29ZkN8GHGP7e-3" target="yJ-5sPFS29ZkN8GHGP7e-5">
          <mxGeometry relative="1" as="geometry" />
        </mxCell>
        <mxCell id="yJ-5sPFS29ZkN8GHGP7e-10" value="签发" style="edgeLabel;html=1;align=center;verticalAlign=middle;resizable=0;points=[];" vertex="1" connectable="0" parent="yJ-5sPFS29ZkN8GHGP7e-8">
          <mxGeometry relative="1" as="geometry">
            <mxPoint as="offset" />
          </mxGeometry>
        </mxCell>
        <mxCell id="yJ-5sPFS29ZkN8GHGP7e-3" value="GlobalSign RSA OV SSL CA 2018" style="rounded=1;whiteSpace=wrap;html=1;fillColor=#60a917;fontColor=#ffffff;strokeColor=#2D7600;" vertex="1" parent="1">
          <mxGeometry x="230" y="250" width="120" height="60" as="geometry" />
        </mxCell>
        <mxCell id="yJ-5sPFS29ZkN8GHGP7e-13" style="edgeStyle=orthogonalEdgeStyle;rounded=0;orthogonalLoop=1;jettySize=auto;html=1;exitX=0.5;exitY=1;exitDx=0;exitDy=0;entryX=0.5;entryY=0;entryDx=0;entryDy=0;" edge="1" parent="1" source="yJ-5sPFS29ZkN8GHGP7e-4" target="yJ-5sPFS29ZkN8GHGP7e-6">
          <mxGeometry relative="1" as="geometry" />
        </mxCell>
        <mxCell id="yJ-5sPFS29ZkN8GHGP7e-14" value="签发" style="edgeLabel;html=1;align=center;verticalAlign=middle;resizable=0;points=[];" vertex="1" connectable="0" parent="yJ-5sPFS29ZkN8GHGP7e-13">
          <mxGeometry relative="1" as="geometry">
            <mxPoint as="offset" />
          </mxGeometry>
        </mxCell>
        <mxCell id="yJ-5sPFS29ZkN8GHGP7e-4" value="R3​" style="rounded=1;whiteSpace=wrap;html=1;fillColor=#60a917;fontColor=#ffffff;strokeColor=#2D7600;" vertex="1" parent="1">
          <mxGeometry x="450" y="250" width="120" height="60" as="geometry" />
        </mxCell>
        <mxCell id="yJ-5sPFS29ZkN8GHGP7e-5" value="stackoverflow​" style="rounded=1;whiteSpace=wrap;html=1;fillColor=#6a00ff;fontColor=#ffffff;strokeColor=#3700CC;" vertex="1" parent="1">
          <mxGeometry x="230" y="360" width="120" height="60" as="geometry" />
        </mxCell>
        <mxCell id="yJ-5sPFS29ZkN8GHGP7e-6" value="百度" style="rounded=1;whiteSpace=wrap;html=1;fillColor=#0050ef;fontColor=#ffffff;strokeColor=#001DBC;" vertex="1" parent="1">
          <mxGeometry x="450" y="360" width="120" height="60" as="geometry" />
        </mxCell>
        <mxCell id="yJ-5sPFS29ZkN8GHGP7e-15" value="" style="endArrow=classic;html=1;rounded=0;fillColor=#fa6800;strokeColor=#C73500;strokeWidth=3;" edge="1" parent="1">
          <mxGeometry relative="1" as="geometry">
            <mxPoint x="640" y="480" as="sourcePoint" />
            <mxPoint x="640" y="110" as="targetPoint" />
          </mxGeometry>
        </mxCell>
        <mxCell id="yJ-5sPFS29ZkN8GHGP7e-16" value="&lt;font&gt;&lt;font&gt;反向溯源 &lt;/font&gt;&lt;font style=&quot;display: none !important;&quot;&gt;反向溯源 &lt;/font&gt;&lt;/font&gt;" style="edgeLabel;resizable=0;html=1;align=center;verticalAlign=middle;" connectable="0" vertex="1" parent="yJ-5sPFS29ZkN8GHGP7e-15">
          <mxGeometry relative="1" as="geometry" />
        </mxCell>
        <mxCell id="yJ-5sPFS29ZkN8GHGP7e-17" value="" style="endArrow=classic;html=1;rounded=0;strokeWidth=3;fillColor=#647687;strokeColor=#314354;" edge="1" parent="1">
          <mxGeometry relative="1" as="geometry">
            <mxPoint x="170" y="110" as="sourcePoint" />
            <mxPoint x="170" y="480" as="targetPoint" />
          </mxGeometry>
        </mxCell>
        <mxCell id="yJ-5sPFS29ZkN8GHGP7e-18" value="&lt;font&gt;&lt;font&gt;&lt;font&gt;签发顺序&lt;/font&gt;&lt;font style=&quot;display: none !important;&quot;&gt;反向溯源 &lt;/font&gt;&lt;/font&gt;&lt;font style=&quot;display: none !important;&quot;&gt;反向溯源 &lt;/font&gt;&lt;/font&gt;" style="edgeLabel;resizable=0;html=1;align=center;verticalAlign=middle;" connectable="0" vertex="1" parent="yJ-5sPFS29ZkN8GHGP7e-17">
          <mxGeometry relative="1" as="geometry" />
        </mxCell>
        <mxCell id="yJ-5sPFS29ZkN8GHGP7e-19" value="" style="shape=image;verticalLabelPosition=bottom;labelBackgroundColor=default;verticalAlign=top;aspect=fixed;imageAspect=0;image=data:image/png,iVBORw0KGgoAAAANSUhEUgAAAlAAAAECCAYAAAAxTOkkAAAEDmlDQ1BrQ0dDb2xvclNwYWNlR2VuZXJpY1JHQgAAOI2NVV1oHFUUPpu5syskzoPUpqaSDv41lLRsUtGE2uj+ZbNt3CyTbLRBkMns3Z1pJjPj/KRpKT4UQRDBqOCT4P9bwSchaqvtiy2itFCiBIMo+ND6R6HSFwnruTOzu5O4a73L3PnmnO9+595z7t4LkLgsW5beJQIsGq4t5dPis8fmxMQ6dMF90A190C0rjpUqlSYBG+PCv9rt7yDG3tf2t/f/Z+uuUEcBiN2F2Kw4yiLiZQD+FcWyXYAEQfvICddi+AnEO2ycIOISw7UAVxieD/Cyz5mRMohfRSwoqoz+xNuIB+cj9loEB3Pw2448NaitKSLLRck2q5pOI9O9g/t/tkXda8Tbg0+PszB9FN8DuPaXKnKW4YcQn1Xk3HSIry5ps8UQ/2W5aQnxIwBdu7yFcgrxPsRjVXu8HOh0qao30cArp9SZZxDfg3h1wTzKxu5E/LUxX5wKdX5SnAzmDx4A4OIqLbB69yMesE1pKojLjVdoNsfyiPi45hZmAn3uLWdpOtfQOaVmikEs7ovj8hFWpz7EV6mel0L9Xy23FMYlPYZenAx0yDB1/PX6dledmQjikjkXCxqMJS9WtfFCyH9XtSekEF+2dH+P4tzITduTygGfv58a5VCTH5PtXD7EFZiNyUDBhHnsFTBgE0SQIA9pfFtgo6cKGuhooeilaKH41eDs38Ip+f4At1Rq/sjr6NEwQqb/I/DQqsLvaFUjvAx+eWirddAJZnAj1DFJL0mSg/gcIpPkMBkhoyCSJ8lTZIxk0TpKDjXHliJzZPO50dR5ASNSnzeLvIvod0HG/mdkmOC0z8VKnzcQ2M/Yz2vKldduXjp9bleLu0ZWn7vWc+l0JGcaai10yNrUnXLP/8Jf59ewX+c3Wgz+B34Df+vbVrc16zTMVgp9um9bxEfzPU5kPqUtVWxhs6OiWTVW+gIfywB9uXi7CGcGW/zk98k/kmvJ95IfJn/j3uQ+4c5zn3Kfcd+AyF3gLnJfcl9xH3OfR2rUee80a+6vo7EK5mmXUdyfQlrYLTwoZIU9wsPCZEtP6BWGhAlhL3p2N6sTjRdduwbHsG9kq32sgBepc+xurLPW4T9URpYGJ3ym4+8zA05u44QjST8ZIoVtu3qE7fWmdn5LPdqvgcZz8Ww8BWJ8X3w0PhQ/wnCDGd+LvlHs8dRy6bLLDuKMaZ20tZrqisPJ5ONiCq8yKhYM5cCgKOu66Lsc0aYOtZdo5QCwezI4wm9J/v0X23mlZXOfBjj8Jzv3WrY5D+CsA9D7aMs2gGfjve8ArD6mePZSeCfEYt8CONWDw8FXTxrPqx/r9Vt4biXeANh8vV7/+/16ffMD1N8AuKD/A/8leAvFY9bLAAAAbGVYSWZNTQAqAAAACAAEARoABQAAAAEAAAA+ARsABQAAAAEAAABGASgAAwAAAAEAAgAAh2kABAAAAAEAAABOAAAAAAAAAJAAAAABAAAAkAAAAAEAAqACAAQAAAABAAACUKADAAQAAAABAAABAgAAAADXkYHEAAAACXBIWXMAABYlAAAWJQFJUiTwAABAAElEQVR4AexdB5xU1dU/W9kKy+5SliZNUaKCUlSUaGIvUWPviWLvhshnojEaoyYmJPaoEbtGxShYsVcUERCwgQFWyrq0ha3ssvW7Z3bPcubufXXezM7Onutv5pzzP+eee+9/cN7Z997clwSJ15JisKRYjBGDZcgQwoAwIAwIA8JAiIGWGPAQizFisIzWIbp6IRDk/IPMFbMPUAYSBoQBYUAYEAZizECQhVCQuWJKQ1crGiKdb6T9I/1wOnv8SOcv/YUBYUAYEAbim4HOLkgiHT/S/jH7dLrCAd3vHP32syI/6HxW4wguDAgDwoAwIAx0JgNBFzF+8/ntFxPu4rUo8DMvP304yZH0j6Qvn4PowoAwIAwIA8JALBiIpDiJpC+uzU9/P32iymO8Hfi9zsdrPJHptp/bOMorUhgQBoQBYUAYSCQG3BYubuN0brz28xqvjxeYHS8Fgpd5eIlFopzinfxOZEfa3ym/+IUBYUAYEAaEgWgwEGkx4tTfya+vyUu8l1h9nEDszjz4exk7qFgveZBgL/FeYgP58CSJMCAMCAPCgDDggwEvxYeXWJyKXbydT19GtGL1cXzbnXXQdztupHGR9kdi3ebw+yFEO7/feUk/YUAYEAaEgfhmwEuR4WcldvntfHwsqzgrnPdFPeg4Pb9vO9YHbzfjuYnBBVvFWeFEkpXfCqd+XHqJ5f24HkQOnk90YUAYEAaEge7JgNsiw44dLzmsYq1wGtfKb4VTP5Ju4tzEUL6IZKwO4m7GcRODizXFmTAixuQzYRRP0i7Gzkf9RQoDwoAwIAwIA12FAbvCw85H6zPFmDC/8dQPpV1einMTQ7G+ZCwKATdjOMWY/CaMSNB9uk1xKE0+E8b7cN1LLO8nujAgDAgDwoAw0JkMeCkyTLEmjNaj+3Sb4lCafCbMqQ/3W+XVY3zb0T74O+X347fqo+O6TSTpuG5THEk7v52P+osUBoQBYUAYEAbilQG7QsXOh+vR/bpNa9Zx3baKM41BsSStcrn1U5xnGa0CwCmvH7+pj47pNhKiY7pNpJlwE0bxJN3EUKwuI+mr5xJbGBAGhAFhoPsx4FRA2DHipq8pxoThODqu235jTP0Q4800lhc/j3WlR+MA7pTTq98UzzGu06J1TLcxTsd02yqXE05+r9JqfK95JF4YEAaEAWEgsRlwKha8rt4qn1vcFKdjuo1z5BjXaf46ptsURzJSP+VxJYM+aDvls/PrPt3GBXGM67RYjnHda19TPsJI6vkJ59JNDI8XXRgQBoQBYUAYCJIBp6ICx7KLMfmcMN3Pba7TOjnGdZPfz3wpj1NfHueoB3mAt8vlxWeK5RjXcYHc5nokPiJOz6fnpDiTNPU1xQkmDAgDwoAwIAxEkwFTUWIazxRnwrAvx7keLZ+e12QjRk2fE+Eo7Xw8zlYP6iBvl8eLT4/lNtdxUdx2o/M+PJ4I4hjXyc/7c8wO1+PEFgaEAWFAGBAG4oEBqyLCDW6KIYwkrZHbbnTsZxWn+0w2YtR4HsJI2vkoxlZaFQq2nTSnXQ63PlMcYSRpWLJJRopjf6tcem6yudT7uvXxONGFAWFAGBAGhIFoMGBXKHjx6bHc5jqugWyStC6ySfrF+Ri6TjlJ6mMR7tSPxxl1u4O/sYMG2vW38um4nc19pJOkqZBNEnHSSdrF2sVzn56DbJPUxzXFCCYMCAPCgDAgDMSKAbtCguagx+g2xhFGUu/rBqcYknY5eAzX+Vz0/mST1PsRjtLOx+M66JEc6O36Wvk4znWaGGEkEXfSTX4/mN1Y+vysbMKtJJ+XVYzgwoAwIAwIA8KAXwa8FgR6vG7jPDjGde7jOOkk/cTxPlznORHHxjGut3pb361wvT/vY6v7PaDb9bPycZzrOEFum3Q3mJsYq7F4X6sYxKnp8YibMIoXKQwIA8KAMCAMxAsDpmLCCdP9ZJPEtZFO0g5zE8P72+lOPvRj42O2Ijve7Xw7opjm96Bv1c8NrseQTRKnRzpJO8wuhnwk7fJwH+rYTP1aPTveecwONLwvx0UXBoQBYUAYEAZiyYBVceAG12PIJonrIJ2kCSMfSYrRbcJRYiM/SSuM47qONjWehzCUVjiPCdOtDv5hQZph1ccNrseQTRKHIp0kYZHalMckOabrus3ngT5qVjj67XzUX6QwIAwIA8KAMBAUA3YFgZWP41zHOXHbpBOmS+pLuF+b+qHERvlItqI7cB5DPpJ6Hyec/GHS64HdKt4NzmPsdJOPMJMkDBeGOtlOkuK55Dr1Rwwbt7ne6t3xbufbERWej+OiCwPCgDAgDAgDXhiwKgj0HHZx3Md1zEE2SbcYxXNJOuUg20nq8WSjxEb97fRQYNsbj3eD85iQ7vZgj8FWsW5wHkM6SZ5bx8h2I+1iyEdj6TbhKLGRn2QrugPnMeTTpd5X91vZfvtZ5RNcGBAGhAFhIDEYsDroO63OqR/3cx3zkk3SDtNjyDZJE2bKjXEUa/I7YdyPOm88rxucx7QXCmGghWF1YDfhHDPpdhj5uOQ6To/bXLfzURzF6DbhKLGRn2QrugPnMeTTpd5X94stDAgDwoAwIAxEkwGrIoHG5H6uo59sknaYHkM2Sq7rOfz6eB6uUz6O6Tra2HhsK9L6boXzmPYiIQw0GFaFgAnnmEm3w9Cn+8nmPl3HKbvBKJceT7ZJcgx1bHqeVtT8zmPNEYIKA8KAMCAMCAPBM+BUCHA/13Em3CZdlxRHuG4jTj4uue7Uh2JNcYShxEaxJDmm62hj47GtSOu7Fd4e4/bgbopzwrifdJI4AdK55Loew31B6foY3OY6jYcYNm5zvdXb8d1NTMdegggDwoAwIAwIA/4YcCwAVFoew3UckWySJox8XEZD18fmY3Af1ymGY7qONjYe24qYMfKFpJsDuynGhGFCwkm6xTCe+gSt87w0HxNGPpPkmK6bbMR4o/E4JrowIAwIA8KAMBAtBkxFAR9L93PbpBNmJ00+xDgeDR3XRXm57oRhLDUea4eRr71oaQcMiungb4fpPrQ5RjqXfnTsY9fPzo/LtOrLfVyneMSwcZvrrd7wdyd/eLRYwoAwIAwIA8JAZAyYCgKekfu5jjFkkzRh6CO/SXKMYnWM8rrx81iTThhKbJSz1Wp95+NzHHXycdyEtfudDuwmvxPG/aTbSe6z09Gn+91iuGBTrI5b2YSjpEZzQZvr5OfSyc9jRRcGhAFhQBgQBiJlwPbgr5JzP9dxXLJJEmZlI04+J93kd4vp89D7kd8kOabraGPDfHozYaGYVD3Sh82LA5NOmElyTNfRjjaGy+VjkE0Y2Vyijs0U0+oJf+dx4R6xhAFhQBgQBoSB6DFgefBXQ3If13E2ZJMkjGyUeGzjtq6TzeMwDza/GI2LOUw6YSapj2uaA8a4bnYFFCbXmwmjGO4j3U5yn66jbYX59eE8TX1NOGEmyTFdR5s3WgPHItGDzhfJXKSvMCAMCAPCQPAM4ME/yGaXj/tMOmEo8fjDbR3jftIxhvqYMFon+cgmSWOQjZJjJp0wk8T+VmNZ+Szj7QooTMYbJtGbCaMY3Uc2Sjud+5PbkhFmJTHMi4/Hm3TCTJJjuo42bzgnt81LrNucEicMCAPCgDCQeAxgceC22cVyn0knzCQ5putk43ENdXrxOdv5KA5jmtVLPz5iPsJMOmLUaByyuTT5TBjv065bFVA0sfZAB4XHcx27oU2Yk05+krw/YW6lXV/uM+mEmSTHdB1tajhPp+YmximH+IUBYUAYEAa6LwO8WLBiwSqG4yadMJPkmK6jTS+cEx7ryOYSfXYNY/FECkq9IUbHUDud+tEc0OY6+e2kMd6qgNIT0SQ5ThhJ9JHOpVsd4/gL89EZKJLc70fHnO39cnJykq+//vrREydOHFVUVDQsPz9/WHZ29sDU1NSclJSULCWzk5KS0rCTNGFAGBAGhAFhoDsx0NLS0tDY2FjT1NS0Tcnqmpqaki1bthSXlpYWz58/f/mtt976bXV1NZ4hwgKGihw8xpLNpRfqMAedeSJp6o/5MRabk05+lNhoniRb0dZ3E8b9IZ0G5g43GI/RdbJNEjF64Zik6xJ9VDRxqce5tdvHOvnkk/tdffXVh40cOXJfVTBNUEVSLjqlCQPCgDAgDAgDwoB7BlRRVaUKqi9WrFgx784773xr5syZG1RvLFCoSCHdq8SiCZsurfJgrO4jTJcYR81KRz/3meLbKzdyosSiRG86RjZJjCedSzsdffyFOXixRDaP8aUPGzYs44EHHjhs3LhxxxcUFOzLxsExpAkDwoAwIAwIA8JAZAw0l5WVzVu4cOGsiy+++K3i4uI6lU4vavzYehFFtlUuXAX5TDphKLFhLDaSrVZHu0MMFiR60zE7m3wmyTFdR5swU9GEc0Kc4qykbcyee+6ZPWPGjNPGjBlzblpaWiEmlSYMCAPCgDAgDAgD0WOgoaFh85IlSx6dMmXKs0uXLq1RI1FBY5JYEJlwjlHRZCV5LOrYCDPphHGp6442FTEYiE23TRjFkKQYsk0SMXphPBVNhOnSrjBy8oG6NJf25ptvnjN27NgL1SW6PBxQmjAgDAgDwoAwIAzEjgF1ia988eLFDx1++OFPqEt9DW0j2xVMfn2YmoorKpxIoo8XVWQTRjaXqGPjMa0Iw7Bw4c2LTbEmyTHU6YVjkW4lqbgyFUqO2EMPPTT+jDPOuFHdDL4LX5jowoAwIAwIA8KAMBB7BtTN598/88wzf7rwwgsXqNGpsEFpKpisMJy4ycfzUcFjh2EeHsdtXbe1sYjhza3N46gQwjyEE2ayuc9KdyyU1FhhMYMGDerx4YcfThs+fPiZbB44J2nCgDAgDAgDwoAw0LkMtKxaterpAw888I5169ZtV1PhRY5eGOk2xpownsOk44o5TjZJ9FEjnaSOd7CxCImkUYHEc+iYXiRhLMXoPrRpTtzHiyXUuZ10xRVXDPnuu+/+o4qns1hupUoTBoQBYUAYEAaEgThgIAmP0XisxmO2mo9+jOfHda5jHDYdo/7ooxjCSKKPGsWQjdKEcb+tzjtz3ZSY/CQphmyUdjr5dWkihWNWOuZJfvTRR/c7++yz71b7Nsl2BPiJSBMGhAFhQBgQBuKYAbWvVNWTTz555bnnnvuZmqZ+ZonbVjqdVeJ+wnSJTBBmp5OPS9SxYX/eQjYVPOjgup1NcSbJMdTdvmyLJJaH4kLy1VdfPfKoo466Qza7xI9LmjAgDAgDwoAw0DUYwE06X3/99WnHHHPMG2rGWJBQMUSSY6jrNo8jv5NEciiGdDuJPmzYh7eQTQUPOriu2+QjSX6yUeq6CcPCBxsVQhSDkmMmnbCQ/OSTT07Zf//9b2rrp4Q0YUAYEAaEAWFAGOhCDDTPnTv3pgMOOOB5NWcsSqgo0iX36TrahOHSqS9i2MhPkmO6TjaXut5uYzGCjYqfVqujTThJPZ5wk+RFEvqpL8etdCqawvx45kmKJxPVggkDwoAwIAwIA12GgWQ8luMxXc047DjfZhtrAEMsLhj7Y+N5WhHnd+prFan7Q3ZKW7TRyTKRn0uuYyja9EKbijMuyU+Sk2PSCSOZpO55mqQex3K3umzn9jl+OBdpwoAwIAwIA8KAMBB/DCTtvPPOBw8dOnTx7Nmz17VND2sEt43ONPF4xDCHLnkMjUGS+1zpbgooSk4SE6NOtkknzEq2F0Qqj0knLEzinfvTpk17LDk5ORMnIU0YEAaEAWFAGBAGujYD6oRIyh577HHw1q1b56iHFFc6rIYXTFa6Q4r2+sUUx2sbk78dMwUSRkFk20n00Qv7YeGDjUvyk6TiCG3SLSXu84Q/f8zJyflJKLO8CQPCgDAgDAgDwkDCMFBdXf3NbrvtdnrbPlF0L5OTxCKKYlCnF2LYdEl+khiDOjYr2erd4Q/FUoFDTrcSix5sVAy1Wq3v3EcxJCmex3DMpIeKKtwkU4onTrPowoAwIAwIA8JA4jCAx3g81qsVYS1AJ1RMdQHHkABuo47NSrZ6d/ThseRzJZ0KKH0CVklp8ia/yUeYGwn4eJa2HcZN+QUTBoQBYUAYEAaEgQRgAI/1eMxvW4qbGoFi+OpNGPntfDwGdYy1bKZEvAPpJskx1J1eejWJNse4TXgyPhh4zZo1L8qz7Sw/Q3EIA4Ex0NwEUFXVApVVzdDYkASpaS2QlpYEWZlJ0LMX/S8f2HCuE21Tz3OvrmmGhoYWaKjHbi2Q2ysZeuYmq/m5TiOBwoAw0AUYwGfnDRky5IS2BxDT5TkuScdLbqhzmzCUbl7ICMWRbpIcQx30X7K5+YbkMVwPJdTe0E8vcpFNfe3spDfffPMcKZ6IOpHCQHQYeP2NWnjk4QpY+FEVNDfhd0nH1n9oOhx6dC/41a9yYeeR+ldHx/hIkbLNzfDI49Uw55UKWLG01jLdzmOy4exz8+D0U7MhvYdlmDiEAWGgizCAx3w89k+YMOERNWVeK+CXE9UMuBqTjTj1oRiUpoZx9IXHdVMsYmExaOCLGtcRM/kphnwkMR7PHGGjM0jkQ8kx0rnsoO+55545CxcufDc1NTUvlFXehAFhIFAGPptXD7+9ej2s+77Odd60zBS44MpCmDq1F6RGqY569tkauPWPG6FyU4PrefXskwbX39IXTjsl23UfCRQGhIH4ZKCxsbF83LhxBy9durRazRCLHH6mSdfJj1LXOYaLxb7YCCfJsVAAiyGbYkI2FTjkRJsa6SbJMdTtXlQYYYyuk80l6iH7iy++mDJ+/PhraUIihQFhIBgG8FLdX/5SAQ/fsxGa6vH7w3sbuWcmPP3sQOjfH/93DabVq3ppynkb4KPXKnwnPPzE3vCPf/SBHHk6pm8OpaMwEA8MLFiw4G/qLNQMNRf8kqKiCSXZJAkjG6WuE2aSKry9oCLdJDnWXvggiI0KI64TRkUS+XSc/CSpKELbpBOGsoM+bNiwzOXLl7+TlpZWiANKEwaEgWAYaFFfH+dN2QjvzSqPOOFOu2XCS7MHQkEh/i8cWWtsBDjnnA0wd47/4olmgMXdS7MHdep9WzQXkcKAMOCPgYaGhs2jRo06pLi4GK/hU0FExRIVVIRzaaejj79wcmSbdMJQYsPYUIv0W4+KJUxGOsnWEXa8c5x0kh36P/DAA4dJ8bSDPNGEgaAYuPKKzYEUTzif1d/VwiknlQDe5B1pu+iijYEUTzgPvGfqtNNKA5lXpOuS/sKAMOCPAawBsBZQvalWIIkJSSfJMdR5oxiS6OM6j3Wt8wIKk+nNhOkxaFvFmSbIY8nPZSifuvZ5vGkgwYQBYcA/A3jZ7uVntvhPYOiJxcott0aWE+95euelyM+I8el983k1XHDhBg6JLgwIA12MgbZagOoGXiuQTiuiGG7rGPeRbidN/dsxXkC5TYKd2xNYdOIxJp1jmILskFTPuutXUFCwr0VugYUBYcAHA1990wgP37nRR0/nLs/OKIOFX7q/4Ztn3LK1CW6/KTrz+uSNCsDiTJowIAx0TQawFsCaQM0+rE5gqzHhhGEY11m3MFWPQduxWRVQps5uMKtJuMVxwklTp049XEmruTkuSgKEAWEgnAG872nqlevVHkrtl+/DAyK0mtX+TL+f5u9sz59vKYfyjf6KLzfTxl/zbd6Et0tIEwaEgS7IQHJbTaDXILyu4D43ONHA+3nFIipSaGCaLNlWk9DjuB2mq51I5ewTsShSGAiAgSefqoblX24LIJN1imULt8GCBaFdLq2DNE91FcDr/438pnEtbZiJWyH85a9bwzAxhAFhoOsw0FYThNUJavbcxsXoNi0Qcd70ON3PY231aJ3loQnRRGkSHCcMJcUlqWfhJPfu3Zu2cecxogsDwoBPBh6fEZsC4tFHnB6kHr6AJ5+pgtoq9fO7KLdXVZFWWRGds29RnrqkFwa6PQNYE2BtoIhorxU0Uky1BcViKPm1bpGZdgUUDUiSJsFtfXT0mfwcI51iyQ7luv7660erjTNlBxedWbGFAZ8MfPDRdtudvH2mNXZ769VKqMJt71y2554J9sZxq2FrKxrhscfU6S5pwoAw0OUYwJoAawNt4noNwWsJrlM3iidbl7qfcpDU49sv4VkGdOixA6A+uqQIHScb/ajTK8yeOHHiKASkCQPCQDAMPPl4dC+R8VnWVzfCJ5+429V8k7ovqfgr60e08LxB6M/9JzbFWhBzlRzCgDAQzkBbbUB1A9UTuo2duI/blNDJT3F2MpTDdAaKkvPOOka2LqmPjnObdB6LWOhVVFQ0jBwihQFhIHIGvpgb21+hff6pu6Lo44/dFVqRM9CaAR9Xs2aN2oJdmjAgDHQ5Btpqg/ZaQS0Add7Ihxj5dEnxOk627icbpR7TfgaKB0Wi4wA0CEnKx22K41goLj8/fxh1ECkMCAORMfD11/VQEcVfuJlmt0DdTO6mff55bAsonNN778d+TDdcSIwwIAzYM2BRG5hqCb2uIJti7Qfy4DWdgfLQ3VUoTR6DTQsgLCTVU5gHusoqQcKAMODIwPsfuDsb5JjIQ8DKb7e7iv5O7WIe6/bpx7E9Gxfr9cl4wkCiMtBWG4TVC9payUcw2lFtXgsouwmZfISRpMWgzV+Eq6e7p+a0G6IIA8JARAws+zZ6+ytZTWybumEbH1bs1Mo2ughySuLRv2yZu+LOY1oJFwaEgSgzYKgNeA1hqjFwRjpuhdHsTfHk6yCdCiiejOuUiDCSiKOu24SjNDXqk5SSkpJlChBMGBAGvDOwYWP0twgwzarOxZWyis2xL6C2bOocPkwcCSYMCAPuGWirDdprBZueVH+QxFDqR93IR5JwiiXb5Cef5T1Qtp1Ub+7nentiixiMtYoP9VVVZjZPIrowIAz4Z2DzptgXKTjb+gbncau2xP7sWJXaVFOaMCAMdD0GXNQGvL7gdQbX+cI5znUeQ7rR73QGCjvrHckmSQOYYq182Nf4SkpKSuOdRBcGhAH/DGzZ4G1ncP8jhfdsajR9PYTHdJaFj7WRJgwIA12LgbbawFg3qJXwLxyu64s0+QgjSX10m/B26aaAag92UPhgpJOkrmjrGPlECgPCQMAMNDV1TrWQlNI54wZMn6QTBoSBrsOAqb6geoMkrobrEa0uyAJKnwhNkiT3I2b14nGiCwPCQAQMZIWefhBBAp9dU1Ki+dXic1Jt3ZJM30iRpZTewoAwEBsGrOoG0//VhJEMfIb6t1wQA5lymLDAFyMJhQFhIJyBzKyUcCBGVkqS8xmotHT5WojRxyHDCAPdjQHTl4sJ88pLWA69gPKaDOMxISUlSXm4zXXyixQGhIEoMpCd2zkFVI9M56+WggGxv90xRYq2KP5rk9TCQFwwwGsNruPkyEZJuu9JO3/LtaY2DeZncD0P2Vz6Xox0FAaEgXAGBgxMDQdiYOX0ToU0F8MOGNwjBrMJH6J/J4wZPgOxhAFhIAIGeK1AOqXTbcKdJPbjzXUeUwGlJ+OJdd0qluOmyZgwPbfYwoAwECED48dnRpjBe/f+g92dWRroMs77DKx7jNlbtpmzZkc8wkCXZMBUT+gY2qZmhbuKNRVQ1NGUWJ8UxZqk3l+33fQxxQgmDAgDLhnYZ78Ml5HBhe0yyl3RNnp07M9Ajd/X3dyCY0MyCQPCQIAM+Kkj3PTBKWKcKdaEhZZkV0CFAizeTAkJI2nqqvvQ5i9TH8GEAWHAJwN7jUmDrF4urqf5zG/qNulAd2d5DjrIXZxpDL/YAZ1QUPqdq/QTBoQBIwO8ZjDVFMZOCqRYkjzOhHG/UccCyq6jnc+Y0AWIOenlIlxChAFhwC8D+JP9Q4/p5be7r34HH+TuzNLo0SmQV+Tucp+viWiddh6TDaN27Zyb6rWpiCkMCAPBMUD1BMqgm13OJL9noPRJWg1ihev9xRYGhIEoMXDxJXmgdvGNUvbwtEN3z4QBA9wXKftPzg1PEEXr3At6RzG7pBYGhIE4ZMDqi88K97SEoAooGpQmRZJwkcKAMNBJDOCZnr0PjE2hctbZ3s52nXd+z5iwkl+UDqecHPtLhjFZnAwiDAgDTgxQTULSKd6VP+gCytWgEiQMCAOxZeC31+ZDckqg3x0dFoDbF5x5hreCaPz4dNhtQvQLmwsvL4C02F0t7MCNAMKAMJB4DETz7lL6tkZJuhODbuOc8ohfGOjyDPxQ3ARvv1MDixfXw1dLamHLxkZoamyB3gWpMHxUDzjmmBw4+phsyM1xXuqk/dLhrEsL4Yl7NjkH+4w4/dcFkJXtvfOlqri54lfbvHd02WPcQT3hkkvcnYFrbATFeR28+nJ1iPOy9Q2hy5+5ecmw656ZMHZMBkw+MBP2HivVmEv6JUwYCJIBtzUC1R34SATUnR+N4GOWmJifhaJBMZVJJ4wk9iUdJdkodd1kUxzJlJaWlkWqrzRhoNsysOSrerjzn+XwwWsV0Nxg//99elYqHHtqL7jp5gLHQqqhAeCIQ9fCiqW1gXO70+hMeOf9wZDus64477yN8O6s8sDnlVuYBm9/sBMUDcCvGOvWomi+++5K+Pd9ZVC1WRHl0MYckA2XXlYARxwe+20iHKYmbmEgYRlQ93LurRbXpF7NNi/80uR+bpOOkl4YS7oulavdp+uh4oe+WbAAwsalrqPNX9iXbF0nGyW9MJZ0lHi3KbeTpYBSjEjrlgxggfP732+B52ds9rz+PkPS4da/9YfDD7U/oBevaoZTT1oDG36o9zyGVQd8PMrMN4bCuL18Vk8qcdmWZjj4gNWwVZ3xCaplqu0b7n90IPzc4VeB337bBFdfWQrLF3k/CzbhZz3hwX/3hYJ8/BqTJgwIA9FkoK2A4sUR6npBhUUQj+E2FUi8aOI6+UnicnSdsFDxgoY0YUAY6EQGSn9shuOO/dFX8YTT3rSmHi4+Yy08/Yx9ETBseDLMfnUI4BmjIBo+EPiOewdFVDzhPLAAeeSZQdCrr/8ijK+nZ580eGrmIMfi6YsF9XDiMat9FU843hfvV8KRh6yBhV8GV/jxdYguDAgD8ctAtP9swjNOvOk294kuDHRLBvDsywnHroVvPq+OaP3NTS1wwzUl8NzzNbZ58HLWy68Ogn0O8XbDt540IycV7n18MJx0UjDFGN5X9MLsIYBn0yJpuJXCf18eAniDul3DoufXp66DbeXqxqcIGp7NO/OEtbBUXXqVJgwIA53KgF5j6Hagk4t2AWWaLC6IXia/YMJAt2EAL9v9+pxS+HHV9kDWjPdM/e7KH2H+F/YH87y8JHj++f7w7+eHABYcXhruKfXTo3vBK2/vFPg9QLuMSoE5bw+BU6YUQmqGt+8+3Krgpn8OhA8+HAyYx65t3tQM556+Dqq3RlY80Ri1FY1w3tk/wvr1eDVAmjAgDMSQAaonvH1hBDBBHJCKKBqcS9TphcORThL7WunoIz/pThJvIl+IA0kTBroDA1OnlsELj5YFvtRBu2TAex8MgR72t0SFxsUbqGe/vA3ef7cWPp9bDaXFHYs5LJoGjOwBY8ZmwXkX9IQJDmd3gljQD6ub4L77KmDR/BooXlYHTfV4K0J4w0t+4ydlw08PzIZTTsp2/SvAs8/eAB+pm/SDbqMnZsEbcwYFnVbyCQPCgGJAfQ+NU0K/54nf76Tr+KXBMbqfCTGTTphyt/t1jHyh4geLGmxYCGHjkoojK4wKJPTrOhVL5CPbTkoBFfoI5K07MIC/tjv+kNWOv7Tzy8WZlxTCbbfme+7eoLZKaG5MgmZVWbW0fR1kqKthyfYndTyP46UDFnl1da3zaf0yaoHU1CRfezvhJc5pF5d4Gd5T7C13DYBzznaxt4SnrBIsDAgDXb2AwuIHG5f4fUZFEtepUCIf2XZSCqgQvfLWHRg47tgSWPyJ/f1KkfCAN3h/tGi4p0erRDJeV+jbrP523W/CD7A+wF8h6uvGS4mffDEUsqO/P6g+tNjCQEIzEMUCCnnDs1LYSNKZJ5LoQx1bSFIh1Ap5e8fCSJowIAz4YOCdd7dHtXjCKTWoS1533xP8ZSofy42bLs89vy2qxRMudEtpPdz/r8q4WbNMRBgQBmwZ8F3LRFJAWc3I92SsEgouDCQaA889E5vCZtYz5VBeTn80JRqL3tfzwL+Cv9/MNItZM4PfFNQ0jmDCgDDgmoHAa5OgCyjTBE2Y6xVLoDCQaAxUqd0KPng7si0L3HJSW9UIs2bb7w3lNldXj8NtBn74Ovhd2E28rPu+zvGXkKZ+ggkDwkBgDJhqDxPme8CgCyiriQQ6aatBBBcGugIDs9Qv3uqrg/n5vJv1znk9NsWam7l0ZsyrL8emeKI1zpwpvBMXIoWBGDMQk5ojVgUUcheTBcX4Q5LhhAHPDCyYF9sD+cK5NbAteveqe15/Z3V49+3Y3pe0eIGc+eusz1rG7dYMxKzWiGUBZfpEcaH8ZYoRTBhIKAa+XhrbA2v9tkb4YlHHvZ0SilSHxdQoyld+VecQFay7+NtaqJcnvARLqmQTBsJrhpgVSybiO7uAMs1JMGEgYRmoV3XMarUpZKzbt9/a70we6/nEerxvvqkHtUlvTIfFX0EuWdK9eY8p4TKYMBBjBqSAijHhMlz3ZuCHH5pC2wvEmoXly7r3gfzrbzrnVNCK/8XuXrdY/5uS8YSB7s5AancnQNYvDMSSga0V+BSC2LcfS2JfQOCjWEpLm6Cyqhlq1CszKxl69kyGPgUpsPMuKeqxDLHjoWRt7NePqyuv7JzPO3bMykjCQPdlQAqo7vvZy8o7gYGtW2mT29gOXrst+gfy0tJm9YDiavjk423w3Ve1ULXJumjJzE2Fkbv3gAkT1TPsTs6F3UZH9zkxNds6h/fK8s4ZN7b/umQ0YaB7MiAFVPf83GXVncRAVSedkaiN4q/w3n1vO9x/71ZYNLfK9XP9cH+qrz7DVw08ctdG2EU9pPic8/PhrNOzonJmalt1bO9/on9elVXRL1xpLJHCgDAQWwbkHqjY8i2jdXMG8DJWZ7Tt24M/E7JgQT388rhSOO+k1bDgg0rXxZNp/d8v3gY3XL4Ofrr/Wpit9skKutXVBb9+N3PMyojumTU3c5AYYUAYiA4DnfNtHp21SFZhIO4Z6Nevcw6oWdnB3XDUqO6Lvvnmcjj56NWw6OOqQDlfs6wWrvz1Ojj3vI2BPoImJ7dzvuoK+wXHe6BESzJhQBiImIHO+VaJeNqSQBjomgz076QCqlfvYK7Wr1nTBEccWhK67NbcEL3LYu/NKoeDJ6+GeZ8F8+vB/IDW7/VfXd8+wfDudVyJFwaEgegzIAVU9DmWEYSBdgb690+B1IzYn5UIooD4+mt1ye7otfC/JVG8oaqdKYDNJfVw9qnr4OVXIr+k17ugc77qhuyUxlYkqjAgDCQSA/LnUSJ9mrKWuGcgTR1PfzI+C5Z8EpsihAjZaVhkB/LP5tXDlDPWQU15bPc1wmcGXnV+CZT/YyCcc2YWLcezHD48svV7HlB1yFFnvfYeG/tx/cxV+pgZaF6/HlrKNpudBjSpdx4kDxhk8AiUiAxIAZWIn6qsKa4Z2H//nJgXUBMmZPjm5PvvG+GCX5XEvHiiCeOlwpumlqj9owbDkUf4W8c++6SpX/clxXQ38r32y47KLwqJF5HRZ2DrbbfApnsedT1QwdknQJ8nnnIdL4FdmwEpoFx+fvXz57mMjF5Yco8MSMovgGT1Ssr2/9d49GYomd0w8PODM+H+v7qJDCYmOSUJJo5P95Vs06ZmOPu0dbZ7OvlK7LFTk3osyjUX/Qh9Zw2GcXt5P6uT3zsFBozsASX/i91jdA74aabHVUq4MCAMdCUGpIBy+Wmt2ufnLiNjE5YMaZDSNw9SC3tC2oB+kDlub8jYdyL0mDQZkvv2i80kEnSUumefhi0P/tvX6gbMng3Qs5dt3wmqmNlpdCasVg+bjUUbuUemmpK/+64uu2wjrP8hmBu5I10r7h112fk/wrsf7wR+/n6YsE92zAoo3Cj05JNyIl2y9BcGhIE4ZkAKqDj+cOym1gwN0LxxEzSoV+23K6HynU/bwzNGDoHs/cZDz3POhh6HHN6Oi+KOgYZ1JVD5wXx3wVpUUX0DuClVLr60AH6n9j2KRTvp9J6+hvn3vyvh83cqffWNVqfS4u1w3bTNcM+9hZ6HOOucXJj1VJnnfn46HHdaHhTkW9+4Xn3/PdBcF5sC2s/8Y90nJTcXsi+4xHLYho8+gOq35lj6o+Wonb/IU+q6pd/A1huu89THa3D20b+A9P3299pN4qPAAH7X0//l9L3PJer0wuEpFiXhJBHjONlcYiy3cVMcbierJ6YvVFjctWVJXfOSWeZuwyH/vHMg57wpoct/cUdsHE6o6u93QMm1N/ma2ahNayCp0Png3qw2qN5vwg9RP7uTkZMKC78ZDjm53pazcmUjHPWzNVCnbuKOx3b/U4Ph6KO8XyI76MC1UKweMxPNlpaeBB8uHA4DB1rv+bVS3c/VsCU2xVw01xpU7vTBRTB8zUrLdFV33AYl//dnS393cgy853bIvfyq7rTk9rWq+xjHKQN3xeUv3O6f27i/CrdJR5z7yCaJcdhIEk4SfahjC0ksXqQlMAO1360KFQMrCnaBrddNA9geu3tAEpjWiJeWrI6t193YN+I8TgmOPTXPc/GEOa++akPcFk84vz9M2wAV5fRdhoi7dt6FBe4CI4g6++JC2+IpgtTSVRgQBuKIASmg4ujDiOZUmqAWNvz1Xli990Ro+OTjaA4luV0y8Mvjs+CEX0fvgF44MB3+eGO+y9nsCLv//ipY+mlst1nYMbo7rezHerju/7yfwcGtEPaa7PF0nLsphaJGT8yCP/yht4ceEioMCANdlQEpoLrqJ+dz3rXfroBVk4+ELb+9Rp2E9P4XvM9hpZsFA3+5rSB0Q7mFOyL4j7f183z2qXhVM9z1l00RjRurzq/P3AJvzPF+RnX6P/pAurq0GXTDfZ8eeLAI8OyiNGFAGEh8BqSASvzPuMMKW9Ql3o3TH4SN5/6qg0+A2DKgdqaA52YOhJF7er+fx26ml13XD479hbecDQ0AF6utAuL1vifTeq+bWgqlpXTLgimiIzZiRCpMv68o0B3h84rS4IkXBsNOO0n11JFxQYSBxGRACqjE/FxdrWrL4y/A5vPPdRUrQdFjoKgoGWa9OhjGH+Tv13L6zH7zx/4wbZr9Vgp6H7SnqUtiyxZG/tgUU+5oYeWlDTDlvPWADzj20rC4vO/RwZCeFfmZqEG7ZMDs14f42p/Ky5wlVhgQBuKLASmg4uvziPlsNs94DrZcfUXMx5UBwxnIVVsGPfd8f7ji+v6Qm+99o0jMVjSsB9zz+CC46irvhdgTT2+DFx/zfk9R+Co6x/rm82r43e+2eB78iMMz4NlXBsNP9vG3XxM+0/CUKYXw2pzBMFTOPHnmXzoIA12dASmguvonGMD8N931CDTM/TCATJIiEgZS1cmQ307tCXMXDIVzL+/jupDqPzQdrrmxP3w0byd12c77dhtfLKiHW/5vfSRT7/S+z8/YDE88We15Hrir+etvDIC/PzgQhqvLqPi4F6eGZ62OOjkf3vtsOPztb/mQl+fcxymn+IUBYaDrMRD5+euut2aZscZAi9rSYv1lV8PgBV8A4FFcWqcy0EsdkG/6U+/Q6+uv6+Hjudth0fxa2LylGeq3N0FWdop6LlwqjJuQCT//WSYMG+7/76D/rWiE884sgfptHq+BdSpD5sFvvrYU+vTx97y8k0/OBnzho2vefb8W5n1WBxvWN0JVRSOkpSVDTs9kGDM2Ew6YlAHj1E7y+FBoafHHQJp6zNWIsrXxNzGZUUIyIEfLhPxYvS+qZslyqPrn3yH32ujuout9Zt27x+67pwO+4KLgf3q/fn0znHXKOqjcpO4eT4DW2Pa8vML/DgJ8XI6f1qdPMpx2Snbo5ae/lz5Jrvas95KxYyz+ceSnpfXtAykZ/jj0M17qoD5+ukkfYaBTGZACqlPpj6/Byx56TAoo9ZEkF/QG3MHdT0tK8X82yM94fvuUqbNZp51a4nkn9IE7p8NFV9jvLVVX2wK3/d8Gv1OLqB8+Lw/PqD3z4mDY4yfx+/UWi7MkLbW1sCJrCDSBtz29ktTDIYYtngfJRUURfRbx2rn2vzOh5v33HKeX1r8Iet1wo2Oc14CKP98MDeudL5ln/+znkHniyV7TS3wMGYjfb5gYkhDtoQY/chek77xrMMMkNUPztlpoLi+H+uXfQ93CBVAx6xO1MYH3/XD0CdWtWAP18z6F9H0n6a5uZWefewHgK1Fb2eZmOPHEEl+PNCnokwK/Osv+JvXKyqZOK6DwM8MzameeuBaeeWFg69m7RP0gHdZV9/JLnosnTJl70PiELZ5wfbWfzoXN9z2Oqm3L3nOXqBRQlTNfgpql39uOjc7kjAwpoBxZ6twAKaBiwH/6mLGQtveEwEfCXX7wx+r9tm6Bin9Ohw233K8Kqe0RjVP93HOQ380LqIgIjPPOm9U9Pif8sgRWfxvd58F1Ng0VGxvgdFUkPqWKqDF7xO5SVGevm49f/eIsbrrWc487xnVsPAc2l5ZCc1VVhyk2V1R0wExAs3oweOP3zoWOqa8d1lzn7pJ5k5qnafxkdXk1OU92u7fjOFY+KaBixXQ0x+mdD73+dCtkHnkUrDnsZGisLvc9WtVb74P9BRrfqaVjJzPww+omOOOUEij5X+RnKzt5Ka6GxzNRpx+3Dv71+EA4cHIPV30SJqiuDsqff9/zcvC+rKwTT/XcLx47bP7tb2DLM7N9T612WTGsGDXWd/9IO5Y9/CzgS2/d+WHCOhedbXeNGzY6m6UuMn76fvvDwMfvjmi29d/+GFF/6RyfDCz9qh5+edTablM80adQU94IU05bB7Nmd60NQmn+fmXtq7N9Xb7LnjQGUgYP9jus9BMGuhUDUkAl2MedecJJkLvfXr5X1QTqQKMuCUpLHAbmvFkHpx67DraU1ifOojyspKG2Ca65sATuubfj5RwPabpUaNVLL/mab68EuXzna/HSSRjwyIBcwvNIWFcIz/3FEVD12Ze+p9q4bg2kqsuCtk09iHjD8cfZhkTTmZypNj0syAvNM6V/f8jYdz9IG6fuM3OxEaLTvLa/Mhsqn3raKczoL3z4YUjKtb/J2tgxSuC/HqyCv/1xPTSpn/h359bc0AJ/v7EUVq2qh+l/K4irB/42Ll8GSY3u7otx8xm2NDZBxTPOvzIz5UrfdTQ0ffOVyRU81jNPznYFz6pkjCEDUkDFkOxYDZU6dFhEQ7VUuPhLvbkZtr78TkTjBN05BXIh9+i9odevfgWZJ6if/6b4e7Br/fLlUPb8q76mV3ifOssT/JZNnufS3ARw7bQyeOHRrvl4Fs8LdtkBH1fzQ3EDPPpov7jZQXzNoUdD/dpSlyuIbljxcWdEdwCWPf+MY6Hv0x3v8WEhogoDcc2AXMKL64/H3+SSkiP7WJNysv0N3Mm9mqAKyl/7EFafch78sPNuUHXXdAB1pqy7tWpV/5508nopniw++EUfVsLRR6yF4lXNFhECCwPCgDDgzEBkR1rn/BLRCQw0bt4c2ahZXbOA4ouuK14HJVf/AX488EBoXvk/7kpovaSkCY4+ei0s/KAyodcZ6eLWfV8Hxx21GuZ/0T3vC4uUP+kvDAgDaq8uISHxGNj+pf/7n5CNlAGDEoaUyo8XwMqRk2D7u/F1uTEaBH82rx5+cfha+OHrxN7jKSjucK+oM09cB//5T/f6hV5Q/EkeYaC7MyD3QCXav4CGeqh67QPfq8JnYHXVS3hWi8ZHWaw55AzY6dOXALd6SMSGN4tPVzeLN3Tzm8W9frb11Y1w3WXrYOHCArj99gJ5SLBXAuM4Pu9C9USBQ37eYYZVL/wXyl//qAOuA+mDiqDfn4J/NujGG26H7T86P8ol7+gDIffEE/RpQfo+kzpgAnQOA1JAdQ7vURu1cvodsH29/+eQZY4eHrW5dWbiJqiGdUecAkOXzVePqRjYmVMJdOxtNQBXXbkR3nrJ/+apgU6oiyab+UgZfP1VLcx4pAgGDvT344MuuvSEnXb6gT8HfOlt+9ffALgooNLyc6PySKfUO+9zVUCl77prVMbX+RDbPwPJ/rtKz3hjoO7Zp2H97/4a0bSyJyfuXzf1lVth07XXRsRPPHVes6YJjlCX7KR4CuZT+e6LbXDkwWtg3mdyX1QwjEoWYSCxGZAzUAnw+TZ88TlsvfPOiB5bQDRkHXooqQkptz49C/Iv+gDSJh/Upde3cFEDnHf2OigvjXz/oPyiVOijXvmFKVBYmAqZmUmW3AwdHvlz5R74zwDL/OgoU8/ru/5K50scPMnfHxwAOQ7bb118uvMu+3hf1FknrYW/3DUATjoJnzYpTRgIloGmbd3jUUrBshaf2aSAisHnUvngQ5Ba5O/BnqbpNZVXQpO6hl5fql6rSlydDjbl0bHM0SO6fGGhr8lklz88A/p04QLq5Ve2wbWXrYc6df+O3zZ2/0z4+cHZcPiRObDrqMiLIi/zOPLwHNvwNWu8nwH62UEZUNgnmK8z3Ln8txetg+LV/eDaqQ5Vme1KxCkMhDOw/fVXYPuKteGgWF2WgWC+cbrs8mMz8U0P+dvVOjaz2zFK/iXn7zCcNLXXVN5RP3WKCszfXLUNapevhoaNmyLOWfHiu9DnYXXmJi0t4lyxTvDii9tg6iUlgDtr+2njDsyC3/+hEMbvneGne7fp06L2D7v31vVQW9MMN96YF1frxj90Mif4f1xTtBazfek3UPPld9FKH/O8dUvVVigHHBDYuM0122Db4u+hRf0nLTEYkAIqMT7HiFeRvddukHvxZe7zqEem9H9tjvv4oCLLt0LFfffAxj/drx5P4m+vo8bqctj+0fvQ4+DDgppVTPK8MacOpl3qr3jq2ScZpt9XBIcd0vX3+IoJ2W2DzLhzI+TmJsM118TPmajsgyZB4X0PxpIGV2NV3Hh9QhVQ+FzQqrmLXK1dgronA3ITeff83MNWnQLZ0P/hBwBSu0A9ndcbel1/I4xYuwQyRvh/anxjcXEYB/FufPjxdrjywh99bVMwdPce8MqcnaR48vkh33nLevj3v/0V6z6HlG7CgDDQBRiQAqoLfEjRnGIypMHgNx6HtL0nRHOYwHMn9+0HA558RO0E66/oa/zR+YbiwCftM+H33zfCxeeUAO5Z5LWNGpcBr74+CIYO63qXK72uNZrxt/1+A7z8imxQGk2OJbcw0NUYkAKqq31iAc43Y8hAGDb3Ncg44qgAs8YuFW6KmXOwv8KvYYP/vbJit0IAfCjw5Zeuh20V3oun/P6p8NhjAyA3R/Y1ivQza25qgRuuXQ8bN8rz8yLlUvq7YyBtpyHuAiWq0xiQAqrTqO+8gVMgE/pefQEMXfw5pE0K7ibJzlhRxh67+xo2qVFVJl2g3X57BSxf5P1RI8nqhNN9DxfBgIH+ztB1AWpiPkXc4uDKKyL/EUPMJy4DdkkGeuyzX5ecd3eatBRQ3enTbltrz+MPgNyzzwLond/lV99jl527/BqsFoAPup1x70Yrty1+5Ak9YdIk2cfIliQfzs/eroAZj9b46CldhAH3DBScfDSkT9zXfQeJ7BQG5M/TTqG9cwfdOuttwFfPAydC33vuhNQ9xnbuhCIZPTUxL0/hpbtrrlivfmno/SfPqers07RpBZ5Y/Xx+Lbz/3jYoXd8IdbXWY44YmQbTrvWW29NEukDw327aAEcdPhSKBsjfn13g4+pyU+x12GQovF/9qEda3DMgBVTcf0TRm2Dlh/Ohes+fQr+broZef/xT9AaSzJ4ZePLpGlj3fZ3nftjhiJN6ur5p/IsFdXDdbzfCiqXuxtpTndXq7gVUbVUj/H36Vpg+vXsXkr7+ccZBp/QRI6DnwfF1eSwpJQXSdh4B2ZMnQ+apZ8QBSzIFNwxIAeWGpQSOaYZGKL3p79Cwdi0UPvgwgPofWVrnMqD2cIR/3bXZ9ySOOjrXVd833qyGK84rhQabM06uEnXDoFn/2QJTp+bBgAHy/0tX+/hzLr0C8CVNGIiUASmgImUwQfpvnvGc2gcqDQofeCiiFTUuWQx1770DNR99DPWr10HDpnJoXLcVmsHdGY6IBk+QznPerIPS4u2+VpOmnmOHjzVxapWVTfB/6nlzUjw5MWX2N9a1wBNPVMN11/UyB0QRrXhhDtQtjK8zKLjchrVd45etUfxoJHU3Y0AKqG72gdstd/ODT0HWvvtA1q+n2IV19DWpPXuffhLK/nEX1CxZ3tEviCcGnnvO/6aNu0/IhKws57Mit91WBhXqob3S/DPw8n8rOqWAwscZBfFII/8rl57CgDCADEgBJf8OwhgoOfd3MOKoYwA3qnTTGhd/CSVnngO13650Ey4xDgzUq0f0zX272iHK2j14kPOGmVu2NsHMR8utk4jHFQMlK+tg0eIG2HusM+euEkpQVBjAR8w0rF0XldyxTJp/4x8hedjwWA4pYzkwIAWUA0FBuId//h6k7z0+iFStOdRNMi0VldC0eQM0LFoI2z74ELb8+xVogqqIx2iCatjyp5ug8N5/Oeba9tgMKDl3mhpXdmh2JMtlwGfztkP9Nu+bZlL6gj7OZ58++qgWGlWhlkitpSWpU5bzyYe1UkB1CvPuB6185Q2oWbzMfYc4jex5ySWQLgVUXH068jvcGHwcSfhTe3zOXFCvtDRIKiyA1F1HQ+YZZ0PBQw/DyKpV0Pe3F6tHmzgfQJ2WvOW+Z6B5o/39DLUzn4W1514pxZMTmR79n86N7F6xvv2c/yZavbre46wk3IqBeWr7B2nCgDDQPRmQAipBPveknGzI/9s/YPDMGb6fD0dUNEMD1PznKTI7yMYvF8C6U64AdR6sg0+AyBhYtszfzeM0aouLDdbt9nmiPCLdMbBqWWQFr7tRJEoYEAbikQEpoOLxU4lgTpknnQL9b58WQYbWrpUzX7LMsf7iy9WZJ9mN2ZKgCBzrSyI7O7SlzLmC6uPiLFUES+hWXTeVRvZ5dSuyZLHCQIIxIAVUgn2guJyev70OMgYPiGhlNXOXANR1/Ou6dtYLUD1/aUS5pbM1A5tK/d//hFnLtjr3n7iPPOLF+hPw5sHtDEpL5deM3liTaGEgMRiQAioxPsfwVah7rXqecGQ45tFqVueYGhYt6NCr7I7pHTABgmOgdltkB+ONG5wLqN13S4edRvcIbtLdPFNNdWSfWTenT5YvDHRZBpzvOI3u0vAmGv6K7mjdKHvG2Mifb7ddbVGQNumAdtaa16+Hms8iO/uUMWwQZO79E0jKcbdbdvvgFkrDymKo+mShhbfrwckR/pjsq4W10KJ+pZmUZJ/o6qkFcM2UH+OSoLzekf8QIpYLS0mJ7d+h+EORJHDeLDWWHOBYLVCvNsxNsJ93xppEGc8NA7xm6NQbcWNZQOFC7b/V3VAnMa4YSCns4yrOLqhpc/jjROremuP7xvHM3YbDgMdnQNqEfeyG9Oyreej+hCqgklIi+1+kUm2OufSr7TBmT/sD7Am/zIEPP+gFs56s8Mx5tDv0zE2B7LxkqCnvGmd2klJi+x2ef+kZUHjfg9H+GDznr/7n32Hdb2703C8eO2TuMgwKb5gGWeqeUqc/RrzMv/F/y9Q2MbfAVrWbvPwIxwtznmJj9j9krP50itmCPNGcwMHN5ZFvlNhUEX5wrfn4I1+MZYwcAkM+/yzw4snXZOK8U3ZOZAUULu/997a5WuWdd/aFMy/urQ4QrsJjGnTQ4TkxHS+SwfJ6xeprNJJZdt++KT29n+2u/b4Y1p5zCaybtD/Uzn4RoIe65J2h/ijx+WpatRI2XXQBrNpzMmx54Q3PxROedUzJzu6+H6L3lcek5gj6/3zTpE2YdzqkhycG6pZ96yneFNxcE34gbiotNYU5YkXT/wJJud6/xBwTJ2BA0eDI7016/plKaG5yO6ElBwAAJphJREFU/t8O/7K+7bY+8N93hsBRp/SEvP5Bfx2YP6DKKudfCv7hxj4wZv/4v9k9Ky8V8vLisAI1U98t0aI5c6DoxqmqBPFegOAGnKtPOx9W/2QPqHlYnfVr8HaJsn7+PNh48omw4if7QNkT/1WXOJ3/7esfUt7RP4MRX38KKWoO0jwxYPoSNGGekvLgaFzCwwnKNwpnuRP0ypdej3jUlML8sByNm7aG2W6MFMiFHsce7ybUX0w8nj7xt5JQr4HqUSxfRtAfu5asqIfnXqiE009196DbcXtlwLgH+odGrdveApUV1pfOUtMi//7ZXNYMeJnOrhUVpcDLrwyGqmq1v36F85gFBbEp/vQ59x8ij3HROYk3OykzE3rdfAvkXnQRbLnhBih79AV1Bsj637hp/rXfrYK1F1wD6TffAX2uughyLrrE9o/C+jffUM8G/SdUvPWJKZ0rLHvsrtDn9j9DxhFHuYqXIEcGnL9IHFOEB0RSQEmhFM5l3Fh4X1Dttysink9q/6KwHI2btoTZboysA3ZxE+Y/Rt0wnUht6PD0QJbzr3vK4eQTe6rN7739LZPRQ92e3Ne+uIl0gl9/VQ/Dh7orPHJzVAkex1fzhgyN/IxhpHx2h/4t6oHlrlqa9SEtecAgKHzkMci78irY9H/XqeLmY1cpeVD9ulIoufYmSL35Tii47CzoddVVkFw0sDVEzbH2P0/D5rvugZoF3/BunvQe/ftB31uug+wpF6pTEd7+//U0kAQTA74PIl7/bKOBSNIERMYJA9vfngM/XhTMjZx6AQV+fm3U5O0vPc80JtgXzKT97G/+dsvP6m+3ww03bHIbHtO4uXMTZxPWCRPi/zJjTD/cKA3W0uC8PQcOnZLlXJinjt0Lit58E4a99hxkjxnla8aN1eWw4a/3wooBu8Pmc38FlX/5M/wwfFdYffbFvosnvMSIlxqHrvgGss+/SIonX5+M705U05B0lchrAeUqqQTFnoGWqkrY+vtpsPqwU9RV9vB7l/zOJmXIkLCuqQW9w2w3Ru3iVW7CJKaNgYkT0iE9x/qvaC9E/eehcpg5s9pLl5jEznm5Empro1xYx2QlAJN/KmegYkF1i8t7j5Iy3J/B7XHUL2Dwl4tg8L//CT0GtF7C9rqWZtgOmx+bCT/+7jaoW1PitXsoHm8Q73PBGTDix6WhS41J2Vm+8kin2DPg5puaKrJYnEuksWLPRBRHbPxhtdr3qGdwI6jLVi0b1kND8UpoWPUD1C9bDuXPvxdY4YQTTetbCOnjJoTNObUwL8x2YzTWVkDDRx9A2k8PchPuPSbBLuGp50TD7ntnwaKPKr1zYehxw9RS6JExAI79hfcbaA3pAoHK1zfDQw+Ww1VXh99jF0jyGCbJ7ZMGY/Zwf8CO4dQ6Zaim6ugV682GpyKYFpncw+Pnoc5g49meoWeeA5XT74CNt/wLmuqD+X/PND8d6338IVD459vUDeK76y6xzQzEqkbAcRzHclNAmZfhH6WJOU7O/xDx1XP1iefE14RczCbvuMPU+fDwe2FS+/R10bNjyPqrfgOD53+uqjLn0+sde3c/5BfH5wZWQNVVt8CVvy6BZdcVwrRr46dgufuOzbDvpEzYZ2LXvQR2yFEB/lGUAP/M6xYvjtoqmsrDt1SxGigJtxvw0UI3mt/wR+h58WWw9c83q/uYnlK3mW/3kcldl56Tx0OfW/8EaZMPctdBouwY6LSaItqX8PQiSbftSBFfJzKQfcIJHUbPnLRvB8wNgD8FXqv2U2n8coGb8G4fc/JJ2ZAR0GU8JBNP0t13+2Y44ZfrYMGCjs837AzCG9U0zj+7BN59v+veD3XmmbI1B/3bqX3heSh/8W0yg5cV7s4KpfSKrKhNKiyE/DvvgZGrFkLvM49XPycP9hCZsfvOsNN/n4ABH30kxVPw/0owo15j6Hago3bGGahAFyDJgmcAdw3POESdgdJa5mFHKGSqhrozaxZ8DSv2/imk5RdAxuihkKSe1xdEa9gQnzdKR7I2/NXZIcf0hFef9f6rR7txF364DU78cA1MOjwbLlQbaB6gzgClpcXiyrx5Vrhr+vmnlMBJv86DK67IgyFDPF5+MaeNCTpsj0yYML5z5lv9yrvQuAr/X4yDpg5P29f+GMivfu1W01BWZudu9yWrWw8ibS2by6BW/RinqXS9ShXw8bdyG9R9/jmkDR8BeDO7tK7NAD+K4b+USL5N/fTHPvzVtdlMgNknqX8C/e+9C9Tv3zusJnmnYYDFFe6J4rc1bCmDhk/cfRn6HSMR+v1mah7MeXErNNbj/x7Btk/frAF8ZfZMgrH7ZsEBk7Nhp8FpUNAnGfr1TYVCtadScsePPzSJFPWomcyMjl8T+Cvz2rrWG8O93ArTrPo9P6Mc/vtEOez90yyYuE8WjB+fAX37pUJBXgoE9MjEYAlU2a7+TUHgOd0mrFMFC766emtJDr9FwG49Des22LnbfWn92m4zaKiHpo3u+sC2Wmj8YRXUzZsHNe99CNUfLPC14WX7JGwUvNG87o77YIN64RMacg47CLIOOADSR+8OSYXu/k0l98pX99TGzz2NNsuNlovXDH6+IP304Wtp72/xNcljbXVK1PEbtWM3jHUT17GnIDFjIP/806DHzw+2HK/wioth7aXTLP3iCIaBESNS4dgz8uHFx6JXbNZWtsBnb9WEXsHM2n+WJrXB8xfvbgu9/GeJTc9dx2XB8cfJL6UiZTs93/2veuu/x7NBzi2tb59Q0PaPPoDiQ6K4ga/zVBwj6lasgboVTwDcr14e2sB7bofcy6/y0KPbhVJd4rRwjHMba8wV7AXe8CFoYl4mSX3CM4kVEwZwT5Q+f/u77Vj4i5WMYYNsY8QZDAPX/6439O4vN94Hw2YwWVLSk+DPt/v7MUUwM0icLKkDB7haTPPqYvUL41pXsalqs0xpCc2A2xqB1x1u+3gmLpoFlOfJSIfOYyB3v71g0HvvAOQ5/FWofknX72+3qlOJcjIx2p9Wobqkduvf/e1PE+25ddf851/Vt9PufUo0zjN+Zn2mm6+1YelSbtrqqaN3s/WLUxgIkoGgCyiq9EgGOVfJFSUG8g7/KQx46y1IUjd4u2mZJ54M/W/+rZtQiYmQgaOPyoSzLon8xtgIpyHdFQN7H9gTrpvm7vmCQpg9A3gvZdqEfeyD2rx1ixa6isNfzKWN3sNVbFBBeNZ+8CN3wfDP3oH8M45VM3B/X1dQc5A8rhigmoSkq05OQUEVUFaTssKd5iX+GDCAv4gbeO9foP9rr3m+KbHXjTdD36umxGCWMsStt+bDIb/0vompMBccAyP3zIQnnuwPHu57Dm7wBMzU5w/XuV5V7bz5rmJ7jFSX7zIyXMVGEoRn33sdNhmGvf4CDF78JWSfewGk7zsJ+j79LIws/gr6Xn0BpKRHtp1CJPOTvmEMWNUgVnhYZycDCyi7RHY+p9xWfsxJL6sYwaPIgPo7Dfr+5kIYsXIp5F52ZYcNM90Ojful7DTzMUjNlL/K3XLmN+6BB/rCwcdLEeWXv0j6jdorC56bOTCuH2ocyfpi3bfPhWdC1ulnuRt2ex1UzXG3f1zW2J+4y+kzKjUnL/RH44hlC0PP0utx5FEdMiUPHQr5/7wLRpathMH33wHZe4/uECNA4AxQPRGtesVqwi1+z0CZJkoYSdOgug9t/jL1ESwABvDUcs+D94OB9/0Vdt74P8iffqfz/U4uxs086RQYsXoJFP3xmtDjX1x0kRAfDOAm7o880hfOulQu5/mgz3eX/Q7tBbNeHgR4P5q0yBjAMzf9fnc5FNz/gOtEtW+86voRVZn77+c6r9tA/N7MO/pA2OnJB2DkplWhTTZTR+3q2B23Gci+5HIYvHABDP/8PSi8/Nfy/ejImusAXjOYagqrRBRLkseZMO436nbbGGBC/U5hGkTHTcn1/rpt1ceEC+aRAbWDDmROGgk9Ru8KmXvtBVm/PAmSi4o8ZnEXnqQe8dLrpluh13V/gO3vvQ3bPvkYaj+bD/WrSqBhTbn6Auxau00nqy8/vw8XhWQ3/2u449UUdeuf82GS2gDzd79ZDxUb1W//pUWFgVS119XVv+8PV1yeG5X83SkpnrnJPf5nUDB1qto8cm9PS698/EnX8ZkHHuQ61i4Qb23I+dl4yDniSMg6Tu1G7vMRVjRG+sR9oRBf/7wbtn/wLlS//DLUfDAXar/6nzp7QIdUihbpwIAbwvQY3bYaAuNMsSYslAO/7emFAH37c0l+HaM/yVBSjK6TjZK/MB5tvOOO48ktLS2LFRZ3bfN5v46vOeGBOjMTUtS21cnZ6tUzV+k9IUX9z5+2+x6QrHa6jZumnqTe4vJhoLGac1K6OqXTI/r3S0RrPWWbm+GWW7bCbLVbeXOD5f/f0Ro+LG+SeiBrodqIc6fhGTBiZDqM2DkV8tUmmLk91V/vPZMhp5fS1b5/deqX6BVVTVBe0QzVlc1QrvahKi6uh5X/q4cfVm6H9au3qwe5du5acGETD+4Jt95aCLvsYvf3ZRgFERm1s14A3MwxkVqL+jeR3DsfcKuC1N3HqCMEfuV7b3XPPg0tza0btDr1zsTLgm3jNK9fH/pjzqkP+UPzzcuD9F1GQfKInQmOrty6BRq+XgqNaq6gviPdtrTxEyFVzbM7NvVdM1atG/9B8Jfajjdk45cHx1HnGOpkc13B7f0Rx0Z+koSFSfxXTS900L9yLnWd4kliAWSlk4+KJIwj3ShVAbUEJyJNGBAGnBn4fnkTPPBgObz+UgXUVjQ6d4gwIlntRD54VAbsMSYT9h6fCWP2SIPdRqdDdgD7StarY8jy7xvh66X1sGhRHSxdvA1WfKN2ia6j77QIJ2/THfd3mnxEL7jggjw4YP/OeUSLzfTEJQwIA4oBVUCparxDkeRUNJGfiiEqrNDmOvlJIue6TlhIUuGDEptJcozH6zoVS4hTcWSlk7+DlAIq9DnImzDgiYHqKoDHnqiCN16rhO8WbQvkTE5mr1QYMiIdRo7MgF12TYc99uwBEyf2iOnN1FhUffmlKqi+3A7Ll9XDiu/rYPWKeqjc5P4vdjsih+6eCQcfkgtTpuTCwIF4QlyaMCAMxCsDLgsoKop44cR1p8JJL5rQxtZB8iKoNWTH2SS0yc91wnRpV0BhbIdiyYRJAYVUSxMG/DNQWdEC775fCwsW1KmCowE2bqyH6oomqMfLY+pkd0pqEqT3UK/MZOiVhy/13Ln8VOg/IBUGDUmDwYNSYMSwVBg8OH4Lik3qQcQrVjbCmjUNsHZtE5T+2ABlZU1QsRUvETZCXXUz1G9vgUZ1eTNJffOkqjNMWTkpUNg3DYYPT4M998qEQ3+eAUVF+LUkTRgQBroCAx4KKF5EYeETVAFFRRTS1cKLIOKPMLRNOmG61Aso9BOGkr/Ix7GQrgoo99vO4gylCQPCgDAgDAgDwkDCM6AKqD3VIqkY0iUvlMhHGJe6jrbphXwSrushG4uWoBoORI10khzXMfKJFAaEAWFAGBAGhAFhwA8DWFvo9QXZJDEv1/2M097HTQGlD0Y2yfZkDhPj8agbX+oMVDA3N/BZiS4MCAPCgDAgDAgDXZaBttrAWDeoRen1hdU6eRzFEEZSx8nuIK0KKD2R3pH7uc7jOE46StJ5bLve2NjYtTYNap+5KMKAMCAMCAPCgDAQDQZc1Aa8vuB1Btf51DjOdR5DutFvVUCZOpkSEEYS+6Gu24SjNDXq09LU1LTNFCCYMCAMCAPCgDAgDHRPBtpqg/ZawYYFqj9IYij1o27kI0k4xZJt8pMvdGN3u+FCsUtm8hFGkoZAm78IB1VlVrcboggDwoAwIAwIA8JAt2fAUBvwGsJUYyBnOm6FEb+mePJ1kE5noDp08AHwCaHObUxHWEjW1NSU+BhDuggDwoAwIAwIA8JAgjLQVhuE1QvaUslHMNpRbUEXUHwB+uS5TXEcCy10y5YtxVFdsSQXBoQBYUAYEAaEgS7FgEVtYKol9LqCbIoNbN2mAooG44PoGNm6pD46zm3SeSxioVdpaWkxOUQKA8KAMCAMCAPCgDDQVhu01wqKEdR5Ix9i5NMlxes42bqfbJR6TPs9UB0cvJeFTn10SeE6Tjb6UadXmD1//vzlCEgTBoQBYUAYEAaEAWEAGWirDahuoHpCtzGU+7iNOjYnf2uU/XsoB+0mjqGoUyOdS11H2+qFZ7bQR5J0srlEvf2Vk5OTsnXr1s9SU1NzFS5NGBAGhAFhQBgQBroxA+oG8qrevXvvV11drR5GZdyJHAsa3H2cJOlkc4m63Uu52/2kc9muY+ESjYaTw0aTbLVabcIJIzsUqwhqVtc6v+BO0YUBYUAYEAaEAWGgezKANQHWBmr1VFNQjUGEkE0ScYolnWIDk5EUUDRRmiTZNDmTTbG0ILLDZHFx8eeURKQwIAwIA8KAMCAMdF8GVqxYMU+tPqxO0Gwkh/vRpoY4b3qc7uextrpVAWVK6AajidGg1Mctjv1apk+f/qaSWG1KEwaEAWFAGBAGhIHuy0DznXfe+ZZaPtUTxASvK7jPDc5zkE6S57LD2u9hwiC8T4k3ur+JMG6T7iSxQKMY0rlEXbcxPnnz5s0zCgoKJtHgIoUBYUAYEAaEAWGgezFQVlb2aWFh4RS1arqEh1LXuY0FENm6TsWVlURyyYc6Nt0mrP1XeO0AKqxhRzfNKs5y4Lak5OcSXS0LFy6c5WZgiREGhAFhQBgQBoSBxGSgrRagGoPXCqTTwimG2zrGfaTbSVP/dozODlECtKmRzqWdjj7+ojNLiJl0wlB20IcNG5a5fPnyd9LS0gppQiKFAWFAGBAGhAFhoHsw0NDQsHnUqFGHqPuia9WKsXAxnX0inEs7HX38hWSSbdIJQ4kNY0MNCxcvrb2j6sR1Uw67CZl8hIXyKsLqlixZ8qgpsWDCgDAgDAgDwoAwkNgMYA2AtUDbKnmNQDq6SEeJjWxdDzkNb9SP4g0hZsiugOJJ9cS6j/t1H9qEmXRLbMqUKc+q/R/KzVMXVBgQBoQBYUAYEAYSkQE89mMNoNZGNQJJXC7pJDmm62hjw1hsJFut1neOcd0qPtTLroCi5Hoywkmin2K4JN0pDv2UI0wuXbq0ZvHixQ9RApHCgDAgDAgDwoAwkPgM4LEfawC10rC6gNlIAtUZXJKOfmzUn3SSehzivDn52+9Z4p3oPifESDdJjqHu9KL7nCgObY5xm/Dk/Pz8tDVr1ryYnZ29C05ImjAgDAgDwoAwIAwkLgM1NTXfDxky5AS1gWaDWiX9oo5L0rHI4fdFUbHE/YRZSSSSfKSbJMdQDxUw2NFt47Fcp/40CS5NPsT0GG6360jgM88886e2eMolUhgQBoQBYUAYEAYSj4EWPOa3FU/ttYBaJtdx1U62HkPxiPOGODWuE2YlW/hZJAoiTLcJpzNI6DfphOmSzipxnDA7GfKtXLnyhuHDh59FkxIpDAgDwoAwIAwIA4nFwKpVq54aMWLEn9WqsJjhZ5forJKVpAKJ+nHbpCNxhJt0wlBSw3hqLVic+GmUhA9OebgPMW5TvBXG/aSHyDrwwAPvUM/C+YYGESkMCAPCgDAgDAgDicMAHuPxWK9WhMd/KpSoFrCSSIDuI8wkEcNGfUgPgV7eUtqC8awQb9wmnSTGoU4218lnkohRo75om3TC2mVlZWWTIvezww477JfJyck9KJFIYUAYEAaEAWFAGOjaDDQ1NVVNmzbt3HfeeWeLWgkVN3YSF0x+rusY+Uii39SscIrt4HdTQGHn9kKmLRPaVpgJpxy8H2FtKdvzcTws1/z58yuHDRv29ZgxY45OSkqiuVN/kcKAMCAMCAPCgDDQxRhoaWlpeOKJJy79/e9//7WaOhVAVhJXRz5dRxsbFTu6bPXu8JPNpVUfHhPSqQihQoUCrGzCTZIwzEG6Lik/jyGMYrmvAzZ79uySCRMm/LDLLrscpgK5n/KIFAaEAWFAGBAGhIGuwUDz66+/fu2pp576vpouFi/4cnv5jhc71JdjyAC3SddxtD03XoBwHRNxm3SS5Ccbpa6bMLrnim4apxiUHDPphIXkJ598csr+++9/U1s/JaQJA8KAMCAMCAPCQBdioHnu3Lk3HXDAAc+rOWNxQ4WTLrlP19EmDJdOfRHDRn6SHNN1srnU9XYbixE3jU+Ex3Nc1/lkqY9dDI8nnUsiJSSR8Ndee20qnvqj5CKFAWFAGBAGhAFhIP4ZwGM3HsNtiid+/EcdG2Fc17FQYNsb+UjyfqTr8Sacx7TrdAkPATqDRE4rm+Ook22lUz4rSf25n2NWOqi9IlYOHTp08R577HGw3FjO6RNdGBAGhAFhQBiITwbwhnG856ntsh2dHKEix0rqcbg4q1iOO5GAsb4aL6AwAS9W7GyK06XeB/36i8dQf8SoIYYL4j4rHdQ9Ueu2bt06Z/LkyePS09P7UhKRwoAwIAwIA8KAMBBfDOBWBfhrO4sbxnmRpOu4EF4YUeGjS33B1If3J53HWuUhnGLbbV6YoNOtzeNQJ5tLHSfbjaT7nXisjoXZgwYN6vHhhx9OU5ttnsnmg2uSJgwIA8KAMCAMCAOdy0CL2iTzadznad26ddvVVKiwQcmLJZNthfEcJh1XzHGySaKPGukkdbyD7fcMFCbC4gabSRJGfiqEQh0c3jAWF8BzUBdLDPeJuvvuuz8eOHDg57vuuuvu6mxUAXUSKQwIA8KAMCAMCAOdwwA+2+7xxx+/+tBDD31WHasb1SzwGI8vvXCyw3Dy1M9OYhw1iuM26ojzptvcZ6nrBYluY0cdI5skxZBtkojRC+Pp5nXCdBl2don1xTgnH+ADiN98881zxo4de2FqamoeDihNGBAGhAFhQBgQBmLHQGNjY/nixYsfOvzww59oe7YdDm4qmqjQ8eujvCgpF0nCdMmLJtJJYiw23Q7DsCDRm47Z2eQzSY7pOtqEUTFlkhRnJe2KqaQ999wze8aMGaepjTfPTUtLK9QXKrYwIAwIA8KAMCAMBMtAQ0PD5iVLljw6ZcqUZ5cuXVqjsmMhYvWyK5qoD8Zgs5IURxJj7XTyc6nrjjYVMRhIzQ1GMSSxL+lc2uno4y/M4aeI4jmM+rBhwzIeeOCBw8aNG3d8QUHBvmwcHFOaMCAMCAPCgDAgDETGQHNZWdm8hQsXzrr44ovfKi4urlPpqIiJRLotmmgMXIWdTn6U2DAWG8lWq6PdIQYLDr25wXiMrpNtkojRC8clXZfoC7KYah/r5JNP7jd16tTD1c3m+/bu3Xu8usSXi05pwoAwIAwIA8KAMOCeAXWJrkr9Cn6Bujl83vTp09+cOXPmBtXbVLwQ5lZGUjTRGLgQ1LFxSTrHdd1kd8CwcDE1Hddt7EMYSROGPvI76eQnifn0Iop8fiXNMdQ/Jycn+frrrx89ceLEUUVFRcPUvVPDsrOzB6qiKiclJSVLyWz1zL007CRNGBAGhAFhQBjoTgzgZpeqSKpR+zZtU7Ja3Qxeou5lKi4tLS1Wz6Zdfuutt36rtiXAYoeKFipOuO1HR5r1IsoqD8aSz0knP0ps2A8byVar9V3HdLu9uOGdUMcCQ292GPeRzqVbHeP4C+fAbS+6XV/uM+mEmSTHdB1tajhXp+YmximH+IUBYUAYEAa6LwMdDuwGKqxiOG7SCTNJjuk62vyFU+K2F92uL/c56eRHiQ3ngI1kq9X67gpL5T2Yjp29HNx5PNcxJU0E8znpGE8NY/EMFPUh3CQxBvPrL4w1+RCnWJNOmElyTNfR5g3HcNu8xLrNKXHCgDAgDAgDiceAm+MirdoulvtMOmEmyTFdR9sKc+PjMXQmijCSuD43uokH7OelGeOtCihTYkygH+RNGPXVfWSjxIa5THrI2eZH4vQxyU/50K/HmHwcwxy8n66T3yQ5puto86bPi/v86EHn8zMH6SMMCAPCgDAQPQbouBjUCHb5uM+kE2aSHLPT0af7CSOJayVdlyYfx0w6YtQwn1Uz+UyYsb/TAdnk1zFum3TCTJJjuo52tDEkhY9BNmFkc4k6NlNMqyf8nceFe8QSBoQBYUAYEAaix4BdMcB9XMfZkE2SMLJNkmOo04v3DRrjuUm3k9yn6ybbCkMcvJyBCnUwvCEhVCSYdMJMEtNhX/Rh4zra1Ad1an4w6kPzRKnrfA7kwzFJJ0nz4DbXyc+lk5/Hii4MCAPCgDAgDETKAB3TrPJwP9cxnmyShFnZiJPPSTf53WL6PPR+5DdJjuk62p6bmwO7KcYO031oc4x0Lv3o2Meun50fibLqy31cp3jEsHGb663e8Hcnf3i0WMKAMCAMCAPCQGQMYHFh17if69iHbJImDH3kN0mOUayOUV43fh5r0glDiY1ytlqt73x8jqNOPo6bsHa/mwO7KcaEYVLCSbrFMJ76BK3zvDQfE0Y+k+SYrptsxHij8TgmujAgDAgDwoAwEC0GbA/+alDdz22TTpidNPkQ43g0dOSQ8nLdCcNYajzWDiNfe9HSDlgopgLACeN+0kniMKRzyXU9hvuC0vUxuM11Gg8xbNzmequ347ubmI69BBEGhAFhQBgQBvwxYCoI9Ew8husYRzZJE0Y+LqOh62PzMbiP6xTDMV1HGxuPbUXMGPlC0u2B3SrOhHPMpNth6NP9ZHOfruNi3GCUS48n2yQ5hjo2PU8ran7nseYIQYUBYUAYEAaEgeAZMBUGfBTu5zrGcJt0XVIc4bqNOPm45LpTH4o1xRGGEhvFkuSYrqONjce2Iq3vVnh7jJeDu1WsCeeYSbfDyMcl13Hy3Oa6nY/iKEa3CUeJjfwkW9EdOI8hny71vrpfbGFAGBAGhAFhIJoMOBUC3M91nBPZJO0wPYZslFzXc/j18Txcp3wc03W0sfHYVqT13QrnMe1FQhhoYVgVA25wHkM6SRyOdJKEke1G2sWQT89LNpdc5/04ruto603vq/utbL/9rPIJLgwIA8KAMJAYDLg6sBuW6tSP+7mOqcgmaYfpMWSbpAkz5cY4ijX5nTDuR503ntcNzmPaC5cw0MawOri7wXmMnW7yEWaShOG0USfbSVI8l1yn/ohh4zbXW7073u18O6LC83FcdGFAGBAGhAFhwAsDVoWAnsMujvu4jjnIJukWo3guSaccZDtJPZ5slNiov50eCmx74/FucB4T0t0e7HlHqz5ucD2GbJI4DukkCYvUpjwmyTFd120+D/RRs8LRb+ej/iKFAWFAGBAGhIGgGLAqEDC/lY/jXNf7cB/pVpL6kt+vTf1QYqN8JFvRHTiPIR9JvY8TTv4w6ffAbtXPDa7HkE0SJ0g6STvMLoZ8JO3ycB/q2Ez9Wj073nnMDjS8L8dFFwaEAWFAGBAGYsmA14KBx3Md50w2SbcYxZOkfrpNOEps5CdphXFc19GmxvMQhtIK5zFhutXBPyzIYNj1s/JxnOuYntsm3Q3mJsZqLN7XKgZxano84iaM4kUKA8KAMCAMCAPxwoCpWHDCdD/ZJHFtpJO0w9zE8P52upMP/dj4mK3Ijnc7344opkVy0Lfra+XjONdpSoSRRNxJN/n9YHZj6fOzsgm3knxeVjGCCwPCgDAgDAgDfhnwWgjo8bqN8+AY17mP46ST9BPH+3Cd50QcG8e43uptfbfC9f68j60e6QHdrr+VT8ftbO4jnSQtjGySiJNO0i7WLp779Bxkm6Q+rilGMGFAGBAGhAFhIFYM2BUQNAc9RrcxjjCSel83OMWQtMvBY7jO56L3J5uk3o9wlHY+HtdBD+JAb5fDrc8URxhJmjzZJCPFsb9VLj032Vzqfd36eJzowoAwIAwIA8JANBiwKxC8+PRYbnMd10A2SVoX2ST94nwMXaecJPWxCHfqx+OMut3B39jBArTL48Wnx3Kb6zgNbrvReR8eT0viGNfJz/tzzA7X48QWBoQBYUAYEAbigQGrwsINboohjCStkdtudOxnFaf7TDZi1Hgewkja+SjGVloVCradLJx2ubz4TLEc4zpOhdtcj8RHS9Tz6TkpziRNfU1xggkDwoAwIAwIA9FkwG2xYIozYThXjnM9Wj49r8lGjJo+J8JR2vl4nK2eYuv17nQqGuz8uk+3cTYc47pppnZ+3eeFTIx1E+8mxjRvwYQBYUAYEAaEgaAYcHMssjuumfo7Ybqf21ynNXKM6yY/YqYYq1jCSdr1pRhXUi8kXHVyCHLK6dVviucY12lqOqbbGMcxrlMOklY+K5z6eZVB5/M6vsQLA8KAMCAMdA0GAisC2pZrlc8Kx27cx3ViUMd0O6gcNJ6ej+Okm+bw/+2aW2rEMAxF97/rYqhoEJKth+Nkpqc/iqWrR04KFqUSS9u7Lu1V3UrcytE+fR5AtE+fBZrlt3yiFxvRiFbbTq6uxRkCEIAABP4fgc5SEMm1NJZvkNd+fa5qrLzhu/5YvTLxqzb0fPcFvqpfiXs52q/PAkT79Vl0YmfxWUzysRCAAAQgAIG3EpgtHrPYeB8d12d5Z+3XZ09n9RCtWK9WNC66tN39P1DWAJElY6Wx4pZP+uuYPovOs1H96sN59fFDAAIQgAAEniaQucMsreWTd9IxfRbdsFbM8q1yrnGvrtaUz9FFodzgNzHSJ6IZ5Syd5ZOZrZjlE73YmWYWk3wsBCAAAQhA4FMIzBaWWUzez9JYvqpe8oad1RVdRCPakj3xF6jrYJHFI6IZNT2d55c5vLjnl7zd9nS/3fNTDwIQgAAE3kFgx7KQqeFpPb9Q8uKeX/LERnQRjdRr2acu8Wjfrq6bP+BGa1Q/xN31q3ORBwEIQAAC7yZw97Iwqz+LXal5Os9/zR3Pu3W6fvn85OWd6b1Lm6kzoGb0GW35g5EIAQhAAAIQaBKILiWjTUa70mdq3aVtovtLf8uln5kjox1vutKv4n+07Kduvl0VLwQgAAEIQOBeApklxZpklb+K65oZfUar+2w5v+3yz86T1Qu0aF5UJ3WxEIAABCAAgW8iEF1UojrNJpuX1et+285vXRAqc1VyriA7+Z3c6ww8QwACEIAABE4Q6CwindzxbpX8Ss6tHD/h4q/OWM3zgO+u5/XBDwEIQAACEHiSwO5lpVqvmneE3actBd15u/ndj/J0/+785EMAAhCAwLsJPL10dPt38499nU+/0HfOv7PWsQ9IIwhAAAIQgMBhAjuXnJ21jmL4xqXhxDud6HH0F4FmEIAABCDwrwmcWGRO9Dj2EX8AK3r8oYsVkXQAAAAASUVORK5CYII=;" vertex="1" parent="1">
          <mxGeometry x="430" y="390" width="183.57" height="80" as="geometry" />
        </mxCell>
        <mxCell id="yJ-5sPFS29ZkN8GHGP7e-20" value="" style="shape=image;verticalLabelPosition=bottom;labelBackgroundColor=default;verticalAlign=top;aspect=fixed;imageAspect=0;image=data:image/png,iVBORw0KGgoAAAANSUhEUgAAAbAAAACuCAYAAABX5Vh1AAAEDmlDQ1BrQ0dDb2xvclNwYWNlR2VuZXJpY1JHQgAAOI2NVV1oHFUUPpu5syskzoPUpqaSDv41lLRsUtGE2uj+ZbNt3CyTbLRBkMns3Z1pJjPj/KRpKT4UQRDBqOCT4P9bwSchaqvtiy2itFCiBIMo+ND6R6HSFwnruTOzu5O4a73L3PnmnO9+595z7t4LkLgsW5beJQIsGq4t5dPis8fmxMQ6dMF90A190C0rjpUqlSYBG+PCv9rt7yDG3tf2t/f/Z+uuUEcBiN2F2Kw4yiLiZQD+FcWyXYAEQfvICddi+AnEO2ycIOISw7UAVxieD/Cyz5mRMohfRSwoqoz+xNuIB+cj9loEB3Pw2448NaitKSLLRck2q5pOI9O9g/t/tkXda8Tbg0+PszB9FN8DuPaXKnKW4YcQn1Xk3HSIry5ps8UQ/2W5aQnxIwBdu7yFcgrxPsRjVXu8HOh0qao30cArp9SZZxDfg3h1wTzKxu5E/LUxX5wKdX5SnAzmDx4A4OIqLbB69yMesE1pKojLjVdoNsfyiPi45hZmAn3uLWdpOtfQOaVmikEs7ovj8hFWpz7EV6mel0L9Xy23FMYlPYZenAx0yDB1/PX6dledmQjikjkXCxqMJS9WtfFCyH9XtSekEF+2dH+P4tzITduTygGfv58a5VCTH5PtXD7EFZiNyUDBhHnsFTBgE0SQIA9pfFtgo6cKGuhooeilaKH41eDs38Ip+f4At1Rq/sjr6NEwQqb/I/DQqsLvaFUjvAx+eWirddAJZnAj1DFJL0mSg/gcIpPkMBkhoyCSJ8lTZIxk0TpKDjXHliJzZPO50dR5ASNSnzeLvIvod0HG/mdkmOC0z8VKnzcQ2M/Yz2vKldduXjp9bleLu0ZWn7vWc+l0JGcaai10yNrUnXLP/8Jf59ewX+c3Wgz+B34Df+vbVrc16zTMVgp9um9bxEfzPU5kPqUtVWxhs6OiWTVW+gIfywB9uXi7CGcGW/zk98k/kmvJ95IfJn/j3uQ+4c5zn3Kfcd+AyF3gLnJfcl9xH3OfR2rUee80a+6vo7EK5mmXUdyfQlrYLTwoZIU9wsPCZEtP6BWGhAlhL3p2N6sTjRdduwbHsG9kq32sgBepc+xurLPW4T9URpYGJ3ym4+8zA05u44QjST8ZIoVtu3qE7fWmdn5LPdqvgcZz8Ww8BWJ8X3w0PhQ/wnCDGd+LvlHs8dRy6bLLDuKMaZ20tZrqisPJ5ONiCq8yKhYM5cCgKOu66Lsc0aYOtZdo5QCwezI4wm9J/v0X23mlZXOfBjj8Jzv3WrY5D+CsA9D7aMs2gGfjve8ArD6mePZSeCfEYt8CONWDw8FXTxrPqx/r9Vt4biXeANh8vV7/+/16ffMD1N8AuKD/A/8leAvFY9bLAAAAbGVYSWZNTQAqAAAACAAEARoABQAAAAEAAAA+ARsABQAAAAEAAABGASgAAwAAAAEAAgAAh2kABAAAAAEAAABOAAAAAAAAAJAAAAABAAAAkAAAAAEAAqACAAQAAAABAAABsKADAAQAAAABAAAArgAAAACK9WFyAAAACXBIWXMAABYlAAAWJQFJUiTwAABAAElEQVR4Ae19B7xdVZX+eSW0hBYcI8XAA4H/kBhpowREaVJlKCNKcUDEAlIcRPirCDKUgVEYNBBgsFAciqJU6UpTBMfQQiICQgAJkRlIKAkoeWXOd+777lt33bX3Oefe+0reW/v3u3et9a21197nO8le79Tbloy+1jYEmzQUYwzBZvgQzoAzMIIY6BuCuQzFGEOwGZUhlvWFuJXzb2WuIduBPpAz4AyMSQZaWYhamWtId8aytmg3O99m+ze7c4Z7/Gbn7/2dAWcgn4HhLgjNjt9s/3yGWhSxLCyojc6x0X4haludLzSO486AM+AMtLqINJqv0X5DsgdH6qLcyLwa6SNJbqZ/M33lHFx3BpyBscNAM8Whmb5guJH+jfQZ1L050hbesvMpG08yi/YrGse8Lp0BZ8AZaDUDRQtH0Tg9v7L9ysbr8Vpmj5QFusw8ysSCqLz4PH8e2c32z8vvfmfAGRi9DDRbDPL65/k1s2Xiy8TqcVpiD+fiW2bsVsWWyQOCy8SXiW3JzvMkzoAzsMwyUGbxLxMLQmLxMZ8mc7Bi9TgN28O16BYdt9m4ZvuD2KI5Gt0Jg52/0Xl5P2fAGchnoMwin5+tPiKWP+aTmUJxIVz2hd7qOJ2/YXuoF88i4xWJwQaH4kI4SQr5Qzj7SVkmVvaTeityyHyuOwPOwPAxUHSRj82wTI5QbAjnuCF/CGc/yiJxRWKYryk5VItokXGKxGBjrTgLIzGWz8IYTxmLifnY36Uz4Aw4A2UYiC38MR/HsGIsrNF49oOM5WVckRjGNiSHYiEuMkZejOW3MJKgfdpmHKTlszDZR+plYmU/150BZ8AZKLPIW7EWRla1T9uMg7R8FpbXR/pDeXVMw/ZgL755+Rvxh/poXNskSePaZhxlzB/zsb9LZ8AZcAZiDMQKRcyHnNqvbY6rcW2H4qwxGEsZylXUz7jScrAW4Ly8jfitPhrTNgjRmLZJmoVbGOMpi8QwVstm+upcbjsDzsDwMJC3gMdmVaSvFWNhGEfj2m40xuoHTDZrrDJ+GVtIH4wFNC9nWb8VLzGpc6M1pm3EaUzboVx5OP1lZWj8snk83hlwBgafgbzFuuwMQvmK4lacxrSNOUpM6py/xrTNOMpm/cxTSLZ60czLF/Nrn7axQRKTOjdWYlIv29fKR4xS5ycuZZEYGe+6M+AMjD4G8hZ1bHEsxvLlYdovbamTbYlJ3fI3Ml/myesr43L1Vi6wsVxlfFasxKSODZS21JvxkTidT+dknCWtvlacY86AMzD6GbCKgrXVVpyFoa/EpT5YPp3XsoGx6TkRh4z5ZFxUb9UiG8tTxqdjpS11bJS0i+iyj4wnQRKTOv2yv8RiuI5z2xlwBpwBMhBaxIvgVgwxSmsc6Qvp6FfUp2M5JqXMQ4wy5mNMVIYW6mgn5YzlKOqz4ohRcljalM3i6B/KpXPTllL3LeqTca47A87A6GUgtlCX8elYaUsdTNKmJLu0KRvF5RhaZ05KPRbxvH4yztRji6/ZQYGx/iGfxmO29FGn5FRoUwKnThmLjcVLn85B25J6XCvGMWfAGRhbDMQWcjKhY7SNOGKUum8RnDGUsRwyRupyLro/bUrdjzhkzCfj6vRmFtpY35BP4lLnxIhRAs/TLX8jWGwsPb+QTTwk5bxCMY47A87Ass1A2QVZx2sbbEhM6tInceqUjcTJPlKXOYGjSUzqFW/lO4Tr/rJPVG90QY31C/kkLnVMUNqWXgQrEhMaS/YNxQBn0/HALYzxLp0BZ8AZkAxYi3kepv20KZGfOmUMKxIj+8f0PB/8aHLMCjLwHfMNRAmt0UU31K8IrmNoU2J61CljWCyGPspYHumDjmb1q3gGvmXMAFrbV+KuOwPOwNhjILQ4F8F1DG1KsEmd0sLoo2SMtolDotFPGcIkrnXYbDIPMcgQLmNq9NDiWxOkjFCfIriOoU2JoahTEmvWZh5LSkzr2pbzgI8thMMf87G/S2fAGRhdDMQW5JBP4lIHM9K2dGJasi/xRm32g0RjPsoKOoDLGPoodZ88nP4aWXZhDcUXwWVMTLd8xCxJDBsGnXaeZLyUUmd/YGjSlnrFO/Ad8w1E1eaTuOvOgDOw7DEQWpD1lsTipE/qyEGbsijGeCmpMwftPKnjaUOisX9MzwL7v2R8EVzGZHrRxRbBodgiuIyhTilza4x2ERmLoY9jaZs4JBr9lBV0AJcx9Gmp+2p/yG60Xyif486AM9A6BkKLbt4Ief2kX+rIS5syhukY2pa0MCs34hhr+fMw6Ycum8xbBJcx1YW6BgwYoYXVwiVm6TGMPimljulJW+oxH+MYo23ikGj0U1bQAVzG0Kel7qv9bjsDzsDoZyC0SHPLpV/q8NOmjGE6hjak1HWORn0yj9SZT2Jah40mYytI5TuEy5jqIl0DGkZoIbZwiVl6DINP+2lLn9Yx5SIYc+l42paUGHQ0naeC2t8y1o5w1BlwBkYrA3kLsfRLHXxIm7qWjCOubeD0SSn1vD6MteKIQaIxllJiWoeNJmMrSOU7hFdjii6uVlweJv3UKTEB6lJKXcdIX6t0PYa0pc7xgKFJW+oVb/13kZj6Xo44A87AssxA7gKcbpyMkTq2mzalhdEn5WDoemw5hvRJnTES0zpsNBlbQWyMvkwWWVitGAtDQuKURTHEs0+rdZmX87Ew+iwpMa1bNjDZOJ7EXHcGnIHRzYC1KMst1n5pWzqxmLR8wCQ+GDq2i3mlnochlk3GxjD6qkWjChiKtfjGMO2DLTHqUjaio0+sX8yPzQz1lT6pMx4YmrSlXvHWfuf5a6PdcgacgdHAgLUgy+2SfqkjhjalhcFHvyUlxliNMW8Rv4y1dGKQaMxZsSrfcnyJQ6dP4hZW9ectrJY/D5N+6jEpfTEdPu0vimGDrViNh2zikGycC2yp0y9lnl/Guu4MOAOjg4Ho4ptuovRLHVtPm5JYyAZOX55u+Ytieh66H/2WlJjWYaMhn24WlsV06sgGbLk4WzoxS0pM67AHG8PmyjFoE6MtJXQ0K6biqf2WcbUet5wBZ2C0MxBcfNMNlz6pgxPalMRoQ2JtkbbWacs45EFrFOO4yGHpxCypx7XmgJjCLVbAkFw3C2OM9FGPSenTOuwQ1qgP87T6WjgxS0pM67Bl4zZIrBm91fmamYv3dQZGKwNYfFvZYvmkz9KJQeL/v7Q1Jv3UEcM+FsbtpI82JcegDSkxSydmSfQPjRXyBeNjBQzJZEMS3SyMMdpHGzKmS397fzJiIYmwMj4Zb+nELCkxrcOWDXMq2srEFs3pcc6AMzA4DGBxLtpisdJn6cQsKTGt08a6Ap0fOeeYj3GI6U0/en1CPmKWDoyN49CW0vJZmOxT1UMFjBOrBuYoMl7q6AabWJ5OP6XsT6yojPWVPksnZkmJaR02G+aZ14rE5OVwvzPgDAwvA3KxDs0kFCNxSydmSYlpHTY/mBPWGtpSwhdriMWBBKRuwLiGxXT24xxgS53+mDTjQwVMJ+IkJU6MEj7qUhbVESc/yMcjMErpb0RHzmq/CRMmtH/ta1/bZIsttth40pprdk1cffWulcaPX7tz3LgJne3tK3V0dIxva28bh07enAFnwBkYagb6evuW9vT0LOnu7X2re+nSxW8tWTJ/4aJF815esGDeQw899ORZZ531h8WLF+MICQWERQZrHG0py0wfOXjkRWn1R37EouXp9EOicZ6UFbTybWHSn+kcWDqKYDJG67QtCYwfjEldS/hYtKTUcUXt6lj77bffpCOPPnrn9bq6tlpj9dX/oaOzY2U4vTkDzoAzsKwx0NPd8+arixb9/rl58x6ced55d1xzzTUvp9uAAsEiQb2sRNFC0zKUB7HaR0xLxLGFdPilz4qvVk46IVEUdNMYbUrEU5cypsMnP8ghixVtGdOQ3tXVtcKM88/febNNN9179YkTt2prq46DMbw5A86AM7DMM9DXl/QuWrjwwUceffT6Y4466o558+b9Nd0oXVQasXURox3KBS7ps3RikGiIRaOsWPV2XQwKgm4ai9n0WVJiWodNzCpamBNwxoVkNGbatGnjL7roov2nTJ166Ljlxr0LSb05A86AMzDaGVj6ztJX5s6Zc8nhhx9+9ezZs5ek28uCYkkUJAuXGItWSMpY6GjELJ2YlFrPtVlEEIimbQtjDCVjaFsSGD+IZ9EipmWsMOX5kokTJ4674aabDv7ABz7whc7OjtUwoDdnwBlwBsYaA93dPa899thjF++1556XL1y4cGn/9scKVqM+pGZxY+GihE8WNdrEaEsJHU3GVBCBoXDIVsZmrCUlBp0fjEU9JFncrEKVi82YOXPLA/ff/+SVxq+0kdww150BZ8AZGKsMvLXkraeuvPrqU4858shZKQcsLJBWwQphoM/yyXwsODEMeWSctLUetVFEZCtqyzgWIuQhTsyypS+k5xaqdKyamEmTJi1/1913n9DV1XVQOguOK7fNdWfAGXAGxi4DfUlfel3sih223/7bL7/88t9SImSR0YVJ24i1MJnD0sG3xGlTwsdGnVLjdTaKQDPNKhQa00UK4zFG+2BzTtInixV0abcdccQRk+fMnXtV1/pdn/biBXq9OQPOgDOgGEj/sMcaibUSa2bq1WusXFeljjg0jbE/fIwhRgkfG2NoQ1qY9Ed12VnqVmL6KRlDGzKm06+lRYrEQjrytF/8wx9OP+BTn5rht8Njd3hzBpwBZyCfAdx+f9VPfnLMFw477IE0Wh9ZSTuk86hK+olpiQkRi+n0SQkdDf1ly2wWHDikHrMZZ0mJQS/6iRYpkYdxmbzuuut223mXXb7tDxtjd3lzBpwBZ6A4A3hI+o7bbz9hn332uTXthYLAYkQpMejalnH050lMkDHUYxI+NPSRLbNZcOCQurbpo6SfNqTWLQyFB42FiDGQErN0Ypn85V13fXL69Omn+DNdGZ/+5Qw4A85AaQbw7NgDDzxwyk477PDTtDOKAouSltKnddjEMAf2BYZGP6XEtE5bSq1XbRQDNBafilVvE6fU8cQtKYsU/Owr8ZDOolXjx5GXFy9B9cLnk74XHxeAq86AM+AM5DOAAwCspVhT0+iadbbfNtdgIxaDoT+azFNB8r/ZNxSp/Znd0R9tOkUm+qWUOkJh8wObxVFK+iklOZZOjLItvea19T577z0jPW1Y9D2OmMuobX2zb0mWfv/wpHfW9UnH1vsnybgVRu22+oY5A85A6xlIi1jbBhtssON666//6E033vhi/whYo4s2HmnJeGDIoaWM4RiU0ldIL1LAmJwSiaHTtnRiIVktSGkeSydWI3HnzFeOPfbS9o72FTGJsd66rzsl6b7p20nSnd4Rm37annsoaf/gJ8Y6Lb79zoAzUJKBtra2jimbbLLja4sW3TZr1qw3crrLghXSc1JU64cVJ2uL5a9iViAxBtGOSfj4QT8UHjQp6adkcYJNPSjxnBdu/xw/YfyULPMY/+o5/1NJ97yH61jo3PHwpGP34+pwB5wBZ8AZyGNgyeIlc6dOmXJA/3NivJaVJ1HEGAOdH2BoWtJPiRjoaCFZ8Q74s1gWGDqLShQdNBajilX5lj7GUDJexkjM0rOihoeUvXgN0Nz+kUMGDKF1/+qipO/p+wXiqjPgDDgDxRjAGou1No3GWswDCmtdlhiSSxs6WkhWvAN9ZCx9haR1CpGDyqQaow0pP+wjMYsEYoVk+nqof9hxhx2+lY7EcQtt3GgOapu0YdK25NWk98/1N2/0zrnLr4eN5p3v2+YMDCIDq6+2+vsnrbXW72695ZaXSg7DoyfZzcKKrOOMoZQ5qzqcOkDa1C0pMeh5HxYrxsGWmLSJt+PFvE89/fS1/m7D6j6rUbq/s0fS85enajAYnetvkXQceXUd7oAz4Aw4A3kM4N2JG2244b79LwDm6UEpqaNAQZc2McgiH0yHcdQtKTHo1WtUmZF+sSjRtqSMkXoolgWLftrsG7Pb8FZ5L16krl52HnZB0rZC/W9ydj/7UNJzyzn1HRxxBpwBZyCHAay5WHvTMLk+F1mzmVn2I2ZJ5oRP6lZsXQyOdPJaXlJOFHkYKzHml5iMYz/6qxK/54WfRGGCMSnffj2+2RPXTcbtiVPW9c2vh9Vz4ogz4AwUYwBrL9bgNLq6JisdiUJrOXxs7A9bxlNnnJZ5/rojMJlAd5a21NmHGKXEiUFqPYjhxyjH9O95pcXrndN3SHrvuZhcmrJtq/2Tji0+bvqWXnpMkuQVQbOng86AMzCWGcDaizU45YBrNCVooU4pMa3DRkMsGmXFqnxLTOqh+KxXkSOwooPIOA7KiUBq3bKrcV1dXSvgl5R10jFjp0Wne+aBSd9f30iW3vSdpPuKr0Q3vXOfU5KO99T/BBr69/zoi9G+7nQGnAFnwGIAazDW4n4f12cp4QrZ0tefwhTozyZ1YkGJuxBlB0snBql1ifHGC2JaSj902lJW8R9fccXu79vwfXsFZz7KHd2XH530zHuoupV9C9IbNR6/PWnfLD3Sst62kWJt605Leh+9JX2o+Z1qPyi9ixYkbT1Lk/YNt67B3XAGnAFnIMZAR0fHSv/v7//+2auuvDJdgGoabrrQTWLypgwdBxt+1hPLXwhDwWCzklkY46UMxQHXPmnTLyXytm226aZ7ywHGkt5z7beSnj/cU7fJPWkRe+fsvYLvPWxb5/1+PayONQecAWegGQb612Ku23Ktps70jJG2xqSPekxa/auYLGBFk6BzNUGgk4yxdIkhBe1M7rfffpNWnzhxq0DuUQ93bPdZ83QgNrzvtfnJ0gs/k+AdiFaLXg+7+kS/HmaR5pgz4AwEGcBajDU5DahZp0UHCyeGMKmLbjWqjoGd2+QpRNmBupSWzgIIHz6wqUs7htf5Lrjggn9a573rfCR39qM1YMXVkvbN01OFf3ky6fvf5+u3Mn3vYc9jtyXty6enDdfbos7f/r7pSZIewfUtfrXW99c305xPpbn/sRZ3yxlwBpyBAAN42e/aa6214NJLL52dhvDUoD5diN70MRNjKDUOG3VC+4HpZmHRuxB1Am0zISQ/MoZ+YowhLu0avaura8wefZGsZMVVk87DfpB0bnNgFdJK8OaOtG/HAWeZz4fh1GTf3f+pU7ntDDgDzkCQgf41uWadToOljb7aZj7gsuk47ZexUZ1HUNGgBpycECfKFBInBsm4tgkTJrRPXGONLaVzLOsd+/5rstx+pwUp6Hn4pqT77D3qTg3Groe984uzg9fRggO5wxlwBsYsA1iTsTanBFTXakWGtbYzFqH0q27NmbFTiBxQSj0h2pR6Ay2cMZD8MK7t5JNPnrrNh7f5dHObNbp6t60zNemYsr15hyG2FKcKex++OWnfYIukbRWcqq409EtenZdkdzAS7Je9f/xN0vHBfew7GlWsm86AMzC2GWhvb1++o73jnrvuuut/Uib0qUKQw9OA0icxSSBxiUFHHZCNNqX0ZToKCFowoOI2v9lHSwZrnDb80PmpsbfYYouNAXirZQBHVMsdd13pmzuCz4elN4N0X/nV2kHccgacAWcgwED/2sx1m+u5ttFb+qTNzHl+xsVkloMFTAYyeQxjjJbso3FpU5exwLLPpDXX7KJjTMgyb8lIXxvVedSVSccmHzWpwUPL71z25do3d/j1MJOrsuC8Z59LTj/9zOqnbH+PdwaWdQb61+bqWp1uD3TZ6ANGn5aM1zht7acNqWMqRUM5GCSl1mFbHxRE4lqnDckPYqln8rnnnz//3ZPevX2Kj4nWMxNvaklJ2PaQpG3aboW3Gc+Kdd9/ZTC+Y/M9k86D/qPqx40buPZlteWOvTbBEZ63MAN33X1P8vnPDbyW85ln9HOd4b7uaS0Dry16Lfnxj69IfvWrX9Uk3nDjjZLvfPusDDv9tDOSSy69rMY/deqU5IYbrqvB3CjOwP+8/D93r7fuukelPfj2eUqcEqQOKW3otC2dmJZpt5pTlfCjUWZ6ZwYN7heKFBt0yybettL48WszeLTLvhcfT/DW+Kylsm21tZNxHzsiadvqU7mbjps72tf6++Sda04yY3FzR7LgyaTzyLTIpUdhbdt/Mel49vfpA9L31sX3XPW1pPP4m+twB5yBkcbApZf9ODnn7HOSt956q25qfTVrW53bgSYZ6F+bq2t1mo46i4pl09fk6HZ3HPWUaZhgqFk+YpTsC1t+iCed48ZNqBqjXOm570c1W4iHlN+55pvJO6dtVzkNmHN6EQ8tZ0dPxs+pILF+c0fngeekRXLNmjE7uzbPTkvWgINo8DQcFiJvzkAZBvBv5rRTTzOLV5k8HtsYA8baLNdw6LLRprR8EqNuxdNXJ/MKmEwmdZ1I+qBrG/ESs/pn/Trb21fSzlFpL3w+6XnoF+amZW/bSF/gm72J/tb0tF+kkJW6uSM9Eht36MzqmJ07Hp50HPWT7AitCg6ycskllyT4XHfttYM8kqcfTQzgtCGOvLwNHwP9azPX97z1HBOVMezHDZA+YpTSJ3X6qzJ0CjHaKe1NPyT1atJ+ReLUY/FZt/Tlkfj9mVHf+p56IHcbszfR//I/k7bfXJW0pzdudO725SRJb+Soa/03dyRXHmeeIuTNHeP2fDFp3+4LlefK1nhv0rbhNnWpHHAGRiID1994k3nkte666yY7bL9dNuV1Jk8eiVMfNXMqsDZzfcdpQ+g8fSh1yQdwNB1fQWu/zRyhAia7chBitCmJQ1oY/dIH3fy0tbeNY4fRLHH6b/mNpifdt3036Z17b/qzKelrngIt+0mU9JoWrmtlN2dYhSw9usKbO9oiN3fgzR0d8/9Yc3NHYEiHnYERxcCLL7xgzufan1+TrLb6aqbPwdYy0L82m+t2OhLwvIKFCck42GjEKCvoAE67TuadQqzrEAEwOBt1So3THtsSR04Hnpss9827E5zOawtcy5IkoYj97YydEty92Pf0/dKV6Xlv7ujY4IN1fRxwBpZFBnBXoRevEbfnQmu+xKXe1Aa0soDpiYQmCTz20XlGv41ntXY/Litky338q3U3WlgE4O7Fdy76TKWQzb61JiR0cwfeqwifN2fAGXAGGmQgtnbH1vwGh4t3K3IKMZ4h38sNzo8c6xH9t7svl97y3vfg1cnSOy9Ifz5lQZSV7DZ84xZ83tzR/cMvJT3pG+jx8DOOzlrVHnnk0WT2448nf37hxZqU7586NZk27f1J1/rr1eDNGniQ+PnnK6eRfnP//cmHt6lcv9t002kN/RWOmwIefXR28vrrr2dTW3XVVZNGc4W27Z6776u61l13cmFOwO3NN9+azPr976v9J6w8IfnQBz+UfPzje5h5cHenbltvM716fUj7YIOD82deWOeaOmVKsvc+9b9YcMP1NyX3P/Db5Kk/PpmstdaayVprr5OsusoqwTnJxHiO7rf31173lfND7sfnzElemv9ilhd98W9pr733lGlq9MWLlySS41VXWyXZbLNNa2KaMRrZDzO+d17yxpuLa4aV21nj6Df0vjvowAPMfcy+Oh54+usdyWcO+WeGjATJdZ+nFQdlTrqAhSpobHBOFDFSp82+jeRm3zEns6Oo9GgJv/vVe99lSfe8h6Mc8Bb8tjsvTDq3PTBp/1D6LFn/zR1tt/5H0rHbV6L9izqxEJ1x+r8lzz33XLTLeuutlxyc/oc65GD7P9XLL7+cvdVCJ9ljj91qFiH8Z/3FL25K/vd/X6kJxZ2MbBjr6KOOMhddxlBef92NyXnnnx+cPxbNY/7lmOjCz1wx+aUjjkxuv+POLAQ3GuBaTV7L4/aBBx5Mvvu97yW77Pyx5Pjjj69Z5NJ31KUF/vmaIe6+++7oduDGCMkjO590cu2zheDsrH8/q2YfoNiwYU5/93fvSv7tzH8Ljvfb39xf92Bx0tebvPHaG3W5mRfyzLPOTC688AIJVXX8Gzzsc5+r2q16UBmF619POTUrqNXkQonthyee+GNyx52V/c4uTzzxhyAvGEvvg9ffeL36QDZzUGJf6Hj4vnzM0QwZCRJrPQuX1jE/+ICjMa5i5X/LfIV/ToWD5advLmKoxmlulkPYu23a7tmt7ssdfmmCZ7byWt0t+GmH7MgrPbprtuE5HLyNQhcvLBxYpGVDzKn/elqCv0ithoKE/4jyM//FF6vFC0cHO+64c+bXxUvnw1jHffWrCYpGqCHfpz99cBan5y/7YGHGNp7w/78u4VK6VbzyrtWEuLUGRmH8x732TrD4sR18yMFUqxLbiSPXULvzjjvqXCuttGKy9z8OHPWcN2NmxlnePoAfvMX2gR7sFzffnJsbeQ8++JDk9TfDNznpvM3Y2A8HH/yZYPGSua398KHp9b8ENXv247JbjX7lVVfX2DB+fd/Akbt24gjYanvuObDPLH8LsaFaowuNU+YamE6o7RBHMg46P4inThnKMeZx3PKOZ7aWP/GXSccWH8/lg7fg9z1We30st2MgAIslHiJl2/ljH0t+eecdCV6phNfz3HXXnZn+/R9cnMCHBnnMl4v9ZYjYCy8aeEbt/PNnJiw0WFTxFybHw5jQMRaKJxsWFLxCyGr/9IlPJvjLmQ39cKSBHPhAl7l+/rOfB3MxhyUbKV74q1pya+XVGN5EccQRX8pOA8Ini46Mvemmm6RZo1sL64e3+XD1lCz++MDRVZmGfXD8CV8r1CWvKCIJ9v3ll1+WrLryyoVyNhOEf+Oht3yE8hbZD4iRf2zIXFaxAi+h+Icfqj8Tgz8eW33KXs7R0LleUyKEOiSb1IlZUsdp2+qTYWUKmJUkNJDGtY1cFmaNMXqw9IFkvGWj+4efT3rTB5T7/pT+NRV5SNnc8P47F1nIYncu4q0brbpp4+L//H51Oiw21n8aPJODQvSzn/20piBVOwsFhYgfWbwQ8s2TTswKIP5z/vq+e7NCKMeDjrFQPOXpk5/89Jrqos6hsKCyGAI75+yzs364ZoAc+EBHLp4+w7hHHRU+omNuKRspXjgyPOnkk2WaGt06umUAFjoUejQc4fEPB/ohb0hPE1oNRRMLq277fWq/DMKR2/d/8EPtzgrKvv+0b3LoZw7JxnvXu95VF3Ptz69NcDq02cbiFbquBT/44WejjTduakj8QWBxgqRl9sNWW32obh6/vu/XdRiKVKiIW0dm+Lci/x0z4RZbbkF1uKS1lmtM25xrCKc/KvU1sGhwv7PRARvtV2ROy0RM34tz0psy5ic9+KS/jJykDymj4R2I7WttmH42Th8u3jppe9/WGR796i9kKIA9d/8g6bn/irpnycZ9+KBoijJO3DjB9oUvfp5qUIYWnWAHw4GihoU07/QbjvKuv+HG7BoQFqB77rmvej0M/+lvu/W2anYUKOsGBQagkK22yqrJdtt9JHdc9oFspHih3+WX/9hcNFGMzjzzjOocwMNhn/t83XUuFGwUe7Rddtml7voLFjz07Vp/vSyGX7fffjvVqkQxQjFHu+KKK+rmFSooRxx+ZN24M747o5orSxj5QkE88ID9s9PHWNTPTt+4MXv27OzIK/bvaP3118/+6IikLuxCQbeKSSP74WM775w8+ODvasb+3X//d40NwypSDLKOzPDv2mrgboQ1rPVlr21hE0r3s47AYoWmjC8WG+K7kT6hXCMPTwuY1bKilha0pWlBe+fCQ5K/Hbdh9ivL3Vd8JXsnYnakZnUEFrgFH0dmrTr6wjDyL9PYooLYVja98IZyc+GFf86cgWsOskDgL+Mid2qhwOUVTTmPRosXcvwqvflCNxQSWbzgBw/nnPMdHZrtFyy+aJi3dURknUaUf5Aw6Z7pHY5sKIy64Tqjte8xV30NFNcSUTjzGo7k8AZ55oW84oofJzfecEMVy8vRCv81P6vfXhTsRvbDR7fdtm5K1ulaq0ixo3Ua0br+hf1N7th3kGUja7Tuo2055VI+q4AxWalE7JTKMv0QKz8izehTexe9VHij8CJePLSMt2footb34E8SvMm+pvEW/JPuy14VNW6nL7b0HYdygQqdn6+ZzwgxZIHY7xOV02OtnJosXlhMyr4ZYs6cuXXTwW3UVgHFQiX3AzvKgv2Rj36EcFXq04ih04cHHVQ5Ysf+lX+wIBHGDRV/zNW6ieTeX9efNqtOql/h0aPGi/7hovs1aj/zzDN1XXfdbbeG9gPmrvcT+JSnVWOnDzkRfYRmXf+y9jf7D6KUa7Ze77Utp9FyX6yAyYFbqcc2opXjjLxcL/2xqTmxqGVvrD933+xIDW/k6L7ulPS5sYGihiMv/HxKK9uaa76nmu6rXz2h0F/X1Q7DqMgCETt12MgUZfFCf73oN5ITfaamz9GF2srp82C6PfHHgX9XXzr8cO3OrpvIoyHrL3lc42HReMy4ay7vOot1E8nvxE0zdZNKAb3IWzFDhVmnD7eZHj6Vn7cf9t6r/jk6PErAposTcM2HPEILXf+KzZFjDaEc8rW9kWtgreADGzrkG9uKiTeTo2fBn5rpbvblg8w9/d62FVZJOtLraR0H/Lv94l8zSz54+mmnpbdu75Uu0m9nCyJu494gvQbBB1rfO3mdZN33rtvyh4ExM/y1+ptf35+8/sYbwYnOmvVQ0AeHdWot2iHHqYsXwlHAjjr6mOS//uvynN4Vt/yLvFCHNAg3KsiijH6LFw88OMu//vUzYTiNyDtC5cLIcffZd1+qifXeQdyYgU+Z9tKC+BkHqwiUyd+qWFncZc5V0gejQy1vP2z7kW2T7804r6b772fNqtp6H+B0JU4RfyK9W5aNpxFx5I1n9nRDn1b/UabHKGhzPW/kulfBIeyw4Spg9myWQfS2m28xZ73rHrvX4unNFuM+MyPpfTq9lfuv6UKcHo31LFqQ+6aN2iT5Fm6fR1Frf/XFpC290YOt8DzZQUksjLjV+8yzzkpeeeWVbLHGdQ75QCu74KHWzTfbrO5hW/qLSizw3/j6N8yL60VyyALxnvdMKtKlcAxuF0fDIgJecHMIijtu1ce4O2y/XeZv9VeR28lxOk/flo/TiChg1qmrbCEUz361es4jPd+8558rPcW8/YCigz+a8H+FjX94WPsAjy9YfXCkBtw6mkWfsd68gA3VvwBco8KzXOInTDr6x85eypsWuN4Xn0gLWlp4Fr6U/hjl03V3FZaZats6U8uEF4rFX3u4Ow83RuCuqj/96Zma/6BMgr8cscDjg4U9dO2E8ZbEA6V6EUYcTrNYf7m/+ebiujv0rLytxLDw4xklLDC4DsWfsEfRve3WW8zrJ60cP5QLp/M0d7wb0Tp1JZ/9CuV0vDwDuD6lj1rxx82t4q5YZsUdpGi6D4/UHnn0EYZWpfXQdNU5RhQvYCNgR6OwoXWkb91gqylur/456V04P+lb8ETS9vabua+VynK04M0bnIuUuGDPU1ESx1+Vi157LXnhhT9nP1bJvzaxkE6e/N5SRyQ4pSN/vBDXZ778L1+O5sDCgDdByLb5pq17L57MC10WL9i4GQFzwKk7FHA8nxW6QQHxg9mwj3D79x13Vo4SORZOI3JBJAZZ5LEIGT/a9NVXW630JhV5Mwhub9cFDNfB9D7IjoDTPw7RdB/8Wwrd4m9ddyy9Ict4By9gI3wHZsVtw7S4iXlmenrEhufKkv7iljz730nf24uzF/eK0CFTcRTChiMuPDzM/7xlnglCDvkMEk7DXHbpJblHM3innm7yTj4WVB3TqM0jL9kfBYtFFEdje6S3pUteZCz0Rk4zzp8fv67EMfBAsi5geDBZ32gCfmNzZD48goDb20djK7L9erufevJJDdXZyIvihFPLbHg8Qe8DeSoQffSpR7yHUjfsD/nvW/vHij0cdyGOFW4Hdzv7T0nijkP8FAteM9V5/M3J8uc8neAtHcPd5N1w1nWy2PzkxW48m1TkP6q8lVzmlnd2hS7Wy/iiurXooSDhoVw23K3ZSJN3q+n+Tz39tIayGzs0iLlgIZRNL5zw4ZZ93aZOrb8LUt4oouNHg41Co1tsP+Bl1LpZbwKRxQnx1j7g6UPm07fG4yhMNzws7S0p/DLfVnOFu1WG/I6VVm/EiM0nbt4Yrjl2rb9ezdA4vTYcTd7+jSO7wW4nfv1r2V/dGAfXnUIvM+Y8cHpUN7zkFrdN64bTtMip23vXXltDmS0fTDYDUtB6CSyuc+qGI9hW/gGg8w+FjZ9fCTW81UO30H7Av2WrqFj7QRcnPQZsfSdhkTdrWA9LW7mHCBu29Xw4TiFiY8fcLfR4u8ZQNhyJtbphUS1yNIRxdcHCEUHRNmHChGpokWsNCMZiYzUcCfJUJk7f4P2GeduAuZeZrxwXuXHdD2+tQMNpOxQJXdDZZ8cddqi7LR6LI27HP+3UU6v98HtZM86rvS2bOawiBB8eTOaNJYyVEqehrHlhG+DTr0M69tivJJde+iOTP/zb+MY3TszSX3DhTDnMiNFR/PFHgHX0jMcI9GnmVuwHFCfeoWoRAZ51s04jyhicVbD2m4wZJn3ID0pipxBjk2mVD3nkZ5h492HzGMBdgdt+ZLsEMq9hMcNvhrHJowx5So+vQGIcpTw9gvcYYtGJNTyTZf1FjD74j87Tejh9s+tuu0fzYU5lfxZEzw2LFrcZY8Ze1ntw+ntp1ukr3I6/08d2TjbYYKPs85XjjjOPvjBOaDEDznnoOcKWPGv/YZ87TEPZIxN4qz+KKY/GsG8uS+9KBc47T7E/rCPIuoSDCFinQTEcnrPCz/Tsvde+NW/Nx3XbwdoP06ZNC25paB/o04gygfWQtPQPgS7XbF0LtC2n03KfVcBaNUgsj9woqTfSR/Z3fRAYwKKOowosxpBbbbV1gt+Jkr+Gi2FhA0eRkKe6TjnlW9VZ7bD9dlUdF6exGOqGxYSFDmPi95mwKCIWY/CD3+zCXPhMls5DG6f1mA+FDvnQF3m40GIhxhg8ckLOIsWaY2j53XPPrS6IKEahYo2jHY6pc+TZWHAxTqzJB5RlHPrGHm/AfrKODrBfUUxZXFEQ8Ltvcn+DOxS04Wz4I0JfA+R8MFdcl9U3YuDGnEZa3n4IFSmMFbqTMHYaMXTE3cjcG+jTyBqt+2hbTqOUzypgMpmlxwaw4ok12o/9XQ4TA1gMeBSDKaAI4Hei8Gu4PEKAhA2cR0P4j42fLpGnbHAKTxYTLIbMIU874q0E6I+GIoZFEbEYgx/8ZhfGQhxzZh3UF4oE3lHIGORDX+TZYssPZuNjIZaFELehxxZ4NUSdiaOfT31yYBFHsWax1MEYB6eZyjb8MYFxYg0LJHmUcfrmAumjPvP886qcESsq/zk9shzuduZZA2cBiswF/04HYz+EihT+QMC/TavxNKL2oSjn7XPdZxjsRtf60v0aKWCSj9CAGtc2cliYzO36CGIAbwzHj0iikFkLopwq/pPhLeP4HS8UP9lYTGKnthCP/8D4izgvDosA3lyOI4ZY47iYV2z+8OH3xfTvk8Vyh3y4rZ5FE4X2jDPrb4dmXxQxFPvY3BgLfhGruaVfSmy3VayKPPtFzuQfLzK3pXNuzRR/K28jGP5N4HfpMKeijfuhSB9ua95+AI/Wv+PYkRnma51GtLCi2zaIcdZarjFtczohnP6o5DuseFOFJRmDRNSlRBGkrXXakFonJmXHW399O37BA7MYQa3oK5qG+yaOovMsSi2OJh5+tLKr5qQvf508ed0E747rWne9wn8h4joKXuPD25Vx04H116UcC7GrrLJK9sJbWbRw9MY8W394m9yCJuO5zbhuEvodMDkHxMux2d+S3Eb68vphHLz37s477qh50wkK4cYbbZTg7QtliwNOj978i9qbXFBcyzRsBx6Extv9n3322fSoeODZJizOa625VnRuFt/rTJ5ceFua7Y9TuPpRi9j4sf2AF1uj+ODICsWpSLPmn3dDETjXd86G/o8UmUMrYlZaYcVN0zw96ac38kFRol/rtCG1TgwSzbKJZ5KFBxLNkhKT8dRZmGBrnTaLFGNo18m0gD2WzWQZ+Wp1YRiszV5W5jlY2+95nQFnoHkG0gL2gTQLi1NIsjDBr3XaLE6MoS0lJkybeo1EAZENwWWbHkDmCOllx/B4Z8AZcAacgWWDgdC6H6sVRbdM5h6SB5nlpItO0uOcAWfAGXAGll0GhmTd10dgraSrplKKxNywkBShrjoDzoAz4AyMIAZC6zZxa6rwDUpr5Zs4MElc40KjTllBB3Dao1aGrjmN2g32DXMGnAFnoLLGSx5YvCjhk7qMLa0XOQLTg9GmlINaGP3SB9389PX2LWUHl86AM+AMOAMjg4H+tdlct9MZ6vU9NGkZxxhilBqnXSdDBUwn0h3ph6QeigHOmFh81r+npyf8xk09gtvOgDPgDDgDQ8JAgbVZru9c8zE3qcu5huJlDHUzR6iAWZ3MBP2B0icnBTd9lMwtJfv0dff2viUdrjsDzoAz4AwMPwP9a3N1rY7MiGs9JULZj92kjxil9Emd/qrMK2DVwH4llszyEaNkPtjyQzzpXrp0cdVwxRlwBpwBZ2BEMGCszXINt9Z4zFvjIYzbaMXTVyfLFrC6BAUAOSHolk28760lS+YXyOkhzoAz4Aw4A0PIQP/aXF2r06GpcxaWTd+gyFbehYgJYgPQcDcidN6VCEza3FDpR0yycNGiee+e9O7tM2MZ+Np1j92XgVn6FJ0BZ8AZaI4BrM2BDFzP6YYtG20dJ2Ma0q0jMA4mE2qMtpbso3FpU5exwLLPywsWzKPDpTPgDDgDzsDIYKB/ba6u1emsoMtGHzD6tGS8xmlrP21IHVN9E0edQ/YK6OyjJcM1Tht+6PzU2A899NCTALw5A86AM+AMjBwG+tdmrttcz7WNCUuftLkxeX7GxWSWA6fweBqPEp2oS6l12KEPjuzgo6ROW0ro1c+ECRM6FvzlLw90dHasnOLenAFnwBlwBoaZgZ7unjfXfM97pi9evDj0JnoUFL6Yly/5BaZxYjGJraWfupRVHYVjMBoGR5OToC0ldDTG9aUE9abnWn9fgf3bGXAGnAFnYLgZwJqMtTmdR3WtVnOSaz5djIVNP30tkc0UME6Ik6TNiVk2YxFDvU7Oe+aZ3zGJS2fAGXAGnIHhZWDevHkPpjOoW6sFhglKP2w24LLpOO2XsVE9VMCshEUwToyDsk9RHP36Zs6ceXtfX3Y4yjwunQFnwBlwBoaBAazFM8877450aK7nnIVc16WvCC5zUKeUuWJY9RoWgnCdSjZe3yImbep5EgWSMdSlhK5txLe/OH/+DyeuMXFrDu7SGXAGnAFnYOgZWPjqwt+us/bah6Uj8xSivMZFXfpQgGhrncUtJLGB9EFH0zax6l2IVQCKaOhYpIXiggP3J6VfSrj6Hnn00euLDOwxzoAz4Aw4A4PHQP9azDVertXUOThjpK0x6aMek1b/KsajIyaAzUZdypgOn/zwyAqYpRODrNO7urpWfPSxx345brlx7+KEXDoDzoAz4AwMHQNL31n6yqYf+MBO6TWwt9NRUTh4xGXpxCBjOv2U2KCYTj8kGmKzhsJRplU7pp2kbuWITcjyEcvypoT9de6cOZdYiR1zBpwBZ8AZGHwGsAZjLe4fSa7R1OGiDolGW+uZ0/hiP8YbITYUK2AyqU6sfdKvfbCJWXoQO/zww6/u7u55zZ66o86AM+AMOAODxQDWXqzBaX6u0ZQYkjqlxLQOGw2xaJQVq/ItMamH4rNesQLG5DoZcUr4GSMl9bw4+JmjRs6ePXvJY489djETuHQGnAFnwBkYGgaw9mINTkerWZeFjYlwnZeSOvxo7E+dUscBly3PX71mJTvxOhcw6paUGPS8D69zMQ62xKRNvH3ixInjnnr66WtXGr/SRpiQN2fAGXAGnIHBZeCtJW89tdGGG+67cOHCpelIvKNQSuooMvK6GIuV9BMLSWwMfdQtKTHoWQFBx6JNxkqd/TkJKS0fMB0j7aoOAq+8+upT02hg3pwBZ8AZcAYGk4F0rcWa21+8qmtxOqTUMYM8W8cwHrhswNmkTiwk++RRFIOIaZs4j6Dgt3RiWvKoSuLEYjLzzf3DH77ZtX7Xpzkpl86AM+AMOAOtZ2Des/P+a8omm5yeZkYxkUdXPKoKSRYo9pO2pWPyxC2dGCQb4tkaLmBIgEKEJgsSMRQdNCl1HIsWcOpBOWnSpOXnzJ171fgJ46dkmf3LGXAGnAFnoKUMLFm8ZO7UKVMOePnll/+WJg4VKo2jqBBjQSKG+cGHRiljoKPlyUrUQFzWp6MfZeFhkLSpUyIGOm2p02dJYGzsC9vSiVXlkiVLeha/+eYDO+200z7t7e3LM5FLZ8AZcAacgeYZwBvnv/H1rx96zz33LEyz6SJj2RiUuNQ1Rh8l/FYL4Yyt8xcpYOhcLST9mWCHMAtnDtmPWH/Kaj6J1+SaNWvWG10bbDDn/VOn7tHW1sa5s79LZ8AZcAacgQYY6Ovtw70GX/rWSSfNSbuzAIUkRqBP67DRWGy0rHgH/LSlDPWRMZnOIsBCwYCQTdySxJCDupbML2OIMVb66rCbbrxx/j9sueVzG7zvfTu3tVXHYQ6XzoAz4Aw4AyUYwMt677j99uM/feCBd6fdUDzwsU4J0qclRgth9FEijo06JfHCsq5AiJ6WT2O0IbVuYWWviSGHeV3sl3fd9cnp06efkhYx5hRTd9UZcAacAWcgjwEUrwceeOCUnXbY4adpLAoJC5eW0qd12MQwJPsCQ6OfUmJapy2l1qs2iw4AqcdsxllSYtCLflikEC91bdOXyUsuuWS3j370o99OTyeOw4S9OQPOgDPgDBRjoK+vb+m99957wqGHHnpr2oMFSEqta1sWKviKfDA5xlGPSfjQ0Ee2zEaBYJM6sJAtcei083T6tWRRkrjEQjri288999zp++6774yOjo6VMWlvzoAz4Aw4A3EGenp63rz22muPOfbYYx9II3UhknZIZxGSfmJaYjLEYjp9UkJHQ3/ZMhtFQLaiNuMsKTHo+oPxUJTQZHFinOWTcVLP+nz2s5+dfOKJJ353woQJfot9hVf/dgacAWfAZGDx4sVzzzjjjH/50Y9+9EIawMJCKQuS1pFPYrIPfZDEtZQ+6jEJHxryyFa1UQBkK2rLuKyI9CchTsyypS+k1xWpNL/Gamw8J3bbbbedMHny5IPSU4ocV26b686AM+AMjFkG0lOGfS+88MIVu+6667f7n/OSBUYXJm0j1sJkDksH3xKnTQkfG3VKjdfZeqEvYzPWkhKDzg8mQD0kUZjQagpUaiM+F5sxY8aW++2338njx4/3dyeCRW/OgDMw5hlIn6N96pprrjn1mGOOmZWSIQuKVZRCGHi0fDIfi08MQx4ZJ22tR20UBdm0DZ/GaFMyhrYlgfGDeBYpYlpahYoxeb4ELwC+/vrrD542bdoXOjs7V8OA3pwBZ8AZGGsMdHd3v5a+Uf7ivffe+/L+dxuCglgRatTHvJCh4kUfJYsYbSmho8mYCiIwFAXdNBaz6bOkxLQOmxiLmSUZF5KxYtaWFrDxF1100f5Tpkw5dNw4/2VnvaPddgacgdHJwNKlS1+ZO3fuJfg9r5yfREGBiBUtFiPEoIUk4ygRG9Ppl1LruTaLCALZimCMoURf6lLGdPjkBzkaKWIyh6l3dXWtcP755++82Wab7Z0enW2VXiLjOBjTmzPgDDgDyzwD6SWu3vQo68FHHnnk+qOOOuqO/l9SZhFpRhYtWhwDXMZ0+sk5YtEoK1a9XReDBV+3IpiM0TptSwLjB+NS1xI+FhkpdVxRuzpWen1s0tFHH71LWtS2WmONNbb02+9BjTdnwBlYFhnA7fCvvvrqrLRYPXjeeefdnl7nejndDqt4ECsqmylaHAOUQkeTkrrEtW7ZdRgKgNU0rm30IUZpYfDRn6fTT4l8sngxP/2NyJoc6W337ent95tsvvnmG6+11lpdaUHrWnHFFddOr5tNSE85rpS+NHi8PyQNyrw5A87AcDCAh417e3uXpKcE30qvZy1+++2356cFa95LL7007+GHH34yvR3+D+lt8Sg2LBosDtJuRMfm6iIWyoNY+vJ0+iHR0A+NsmJVvjWm7WpxkZ2gozjoFsOkj7qURXXEyQ/mIO0yeqyv9Fk6MUtKTOuw2TDXvFYkJi+H+50BZ2B4GahbWI3phGIkbunELCkxrcOWH0xJ2mX0WF/py9Pph0TDHNAoK1bluxDWKXsIHZ3LLK4yXupIyYkgX56OeDbE4giMfYhbEjHIrz+ItXzAGWvpxCwpMa3Dlg1jFG1lYovm9DhnwBkYHAaKrEscORYrfZZOzJIS0zrsEFbEJ2N4JEaMEttXRLd4QL8yzYwPFTArMRLoRdbC2Ff7aEOiIZelZ85+P4jTY9LPfPDrGMsnMeSQ/bROvyUlpnXYsul5SV8jeqvzNTIH7+MMjHYGuC61ajtj+aTP0olZUmIxHT7tJ0aJbaWupeWTmKUDY0O+ULN8Fmb2z1sQLb/GpG3pxCwpMa3DHmwMpMgxaBOjLSV0NCum4qn9lnG1HrecAWdgtDMQW4ylT+rghDYlMdqWlBh0fmTfVmMyN/WYlD6tW3YIA56UOQLLOhhfIISLtKUTsyTSoS98aFKHzT7Q2RrB2IfzhNS6nAN9GJM6JechbanTL2WeX8a67gw4A6ODAa4poa2RfqkjnjYlsZANnL483fIXxfQ8dD/6LSkxrcMu3YosrFZMDNM+2BKjLmUjOvrE+sX8ICrUV/qkznhgaNKWesVb+53nr412yxlwBkYDA1jcY036pY4+tCktDD76LSkxxmqMeYv4ZaylE4NEY86KVfmW40scOn0St7Cqv8jCasVYGJISpyyKIZ59Wq3LvJyPhdFnSYlp3bKBycbxJOa6M+AMjG4GootvuunaL21LJxaTlg+YxAdDx55kXqnnYYhlk7ExjL5q0agCAcVagPMw6adOiWGoSyl1HSN9rdL1GNKWOscDhiZtqVe89d9FYup7OeIMOAPLMgPWgqy3R8ZIHXG0KS2MPikHQ9djyzGkT+qMkZjWYaPJ2ApiY/RlsujCGoqzcIlZegyDT/tpS5/WsTFFMObS8bQtKTHoaDpPBbW/Zawd4agz4AyMVgashVluq/RLHTHSpq4l44hrGzh9Uko9rw9jrThikGiMpZSY1mGjydgKUvkO4dWYMotrKNbCJWbpMYw+KaWOyUtb6jEf4xijbeKQaPRTVtABXMbQp6Xuq/1uOwPOwOhnIG8hln6pgxnalDFMx9CGlLrO0ahP5pE680lM67DRZGwFqXyHcBlTXaRrwIARWoyL4DKGOiWGo05JjHYRGYuhT+elLaXUZT+Jax22brqv9ofsRvuF8jnuDDgDrWOg0MJqDJfXT/qljlS0KWOYjqFtSQuzciOOsZY/D5N+6LLJvEVwGVMtHDVgxAgtrkVwGRPTLR8xSxLDtKHTzpOMl1Lq7A8MTdpSr3gHvmO+gajafBJ33RlwBpY9BkILsd6SWJz0SR05aFMWxRgvJXXmoJ0ndTxtSDT2j+lZYP+XjC+Cy5hML7rYyo6hPkVwHUObEuNQpyTWrM08lpSY1rUt5wEfWwiHP+Zjf5fOgDMwuhgILdDYypBP4lLXfaSPekiyL/2N2uwHicZ8lBV0AJcx9FHqPnk4/TWy0YU11K8IrmNoU2KC1CljWCyGPspYHumDjmb1q3gGvmXMAFrbV+KuOwPOwNhjoOyCLeOlDuZoUxbFGE/JftomDolGP2UIk7jWYbPJPMQgQ7iMqdFDi29NkGHE+oV8Epc60kvb0otgRWJCY8m+oRjgbDoeuIUx3qUz4Aw4A5IBa7HOw7SfNiXyU6eMYUViZP+YnueDH02OWUEGvmO+gSihNbPoxvqGfBKXOqdEjBJ4nm75G8FiY+n5hWziISnnFYpx3BlwBpZtBsouxDpe22BDYlKXPolTp2wkTvaRuswJHE1iUq94K98hGRAs6gAABFNJREFUXPeXfaJ6swtqrH/Ip/GYLX3UKblhtCmBU6eMxcbipU/noG1JPa4V45gz4AyMLQZiCziZ0DHaRhwxSt23CM4YylgOGSN1ORfdnzal7kccMuaTcXV6KxbaWI6iPiuOGCUnT5uyWRz9Q7l0btpS6r5FfTLOdWfAGRi9DMQW6DI+HSttqYNJ2pRklzZlo7gcQ+vMSanHIp7XT8aZemzxNTsEwFieMj4dK22pYxrSLqLLPjKemyQxqdMv+0sshus4t50BZ8AZIAOhhb0IbsUQo7TGkb6Qjn5FfTqWY1LKPMQoYz7GRGVooY52Cjhjucr4rFiJSR1TkbbUm/FxE3U+nZNxlrT6WnGOOQPOwOhnoOhibcVZGBiTuNQHy6fzWjYwNj0n4pAxn4yL6h1Rb3ln3qId82uftjEbiUndmmnMr31lyERskfgiMda8HXMGnIHRxUCRtSC2rlj98zDtl7bUybTEpG75gVkxoVjilLG+jCkk9UJeqFNOUF7Osn4rXmJS59Q0pm3ESUzqzEEZ8oVw9isrW52v7Pge7ww4A8UZaNki3D9kKF8IRzfpkzq3QmPablUOjqfzSZy6NQf6SsvBWjTz8jbit/poTNsgRGPaJmkWbmGMpywSw1gtm+mrc7ntDDgDw8NAM4tykb5WjIVh6zWu7UZjrH7AZLPGKuOXsYX0wV5A8/I34g/10bi2SYjGtc04ypg/5mN/l86AM+AMxBiILfwxH3Jqv7Y5rsa1HYqzxmAsZShXUT/jSstWXwOzJlBkkc+LsfwWxvG1T9uMC8mi8Xk7LpTfcWfAGXAGwECZNcSKtTAyq33aZlxoHrH4UB+Zs2iM7lPYLrpQF04YCCwyTpEYpLfiLIxTsXwWxnjKWEzMx/4unQFnwBkow0CsYMR8HMOKsbBG49kPMpaXcUViGNuQHIojMDmxIgt/kRjkDMWFcM4j5A/h7NdqOdTjtXr+ns8ZcAYGGGjFYl0mRyg2hHOmIX8IZz/KInFFYpivKTlci2jRcZuNa7Y/yC2ao9EdMdj5G52X93MGnIF8BgZ7sY7lj/nkzENxIVz2hd7qOJ2/YXs4F88yY7cqtkwekFomvkxswzvMOzoDzsCoYKBoUcDGlonNiy+Ta7BiW7YDR8qiW2YeZWJBVF58nj+P7Gb75+V3vzPgDIxeBsoUCYuFvP55fp2zTHyZWD1OS+yRtviWnU/ZeJJWtF/ROOZ16Qw4A85AqxkoWiiKxun5le1XNl6P1zJ7pC7QjcyrkT6SyGb6N9NXzsF1Z8AZGDsMNFMImukLhhvp30ifQd2by8LC2+gcG+0XIrzV+ULjOO4MOAPOQKuLRaP5Gu03JHtwWVuUm51vs/2b3SnDPX6z8/f+zoAzkM/AcC/6zY7fbP98hloUsawvqK2cfytztWj3eBpnwBlwBkwGWllkWpnLnOxggaNx0R6KbRqKMQZrn3teZ8AZGJkMDEUhGYoxhozd/wNlzZBa8b3UBwAAAABJRU5ErkJggg==;" vertex="1" parent="1">
          <mxGeometry x="190.69" y="390" width="198.62" height="80" as="geometry" />
        </mxCell>
        <mxCell id="yJ-5sPFS29ZkN8GHGP7e-23" value="" style="endArrow=none;html=1;rounded=0;strokeWidth=3;" edge="1" parent="1">
          <mxGeometry width="50" height="50" relative="1" as="geometry">
            <mxPoint x="120" y="480" as="sourcePoint" />
            <mxPoint x="690" y="480" as="targetPoint" />
          </mxGeometry>
        </mxCell>
        <mxCell id="yJ-5sPFS29ZkN8GHGP7e-24" value="&lt;font&gt;stackoverflow证书链&lt;/font&gt;&lt;font style=&quot;display: none !important;&quot;&gt;文字&lt;/font&gt;" style="text;html=1;align=center;verticalAlign=middle;resizable=0;points=[];autosize=1;strokeColor=none;fillColor=none;fontColor=#000000;fontStyle=1" vertex="1" parent="1">
          <mxGeometry x="230" y="80" width="140" height="30" as="geometry" />
        </mxCell>
        <mxCell id="yJ-5sPFS29ZkN8GHGP7e-25" value="&lt;font&gt;百度证书链 &lt;/font&gt;&lt;font style=&quot;display: none !important;&quot;&gt;文字&lt;/font&gt;" style="text;html=1;align=center;verticalAlign=middle;resizable=0;points=[];autosize=1;strokeColor=none;fillColor=none;fontStyle=1" vertex="1" parent="1">
          <mxGeometry x="470" y="80" width="80" height="30" as="geometry" />
        </mxCell>
      </root>
    </mxGraphModel>
  </diagram>
</mxfile>
